<svg version="1.2" baseProfile="tiny-ps" xmlns="http://www.w3.org/2000/svg" viewBox="0 0 3000 2000" width="3000" height="2000">
	<title>10054-ai</title>
	<style>
		tspan { white-space:pre }
		.shp0 { opacity: 0.6;fill: #d2e4ff } 
		.shp1 { opacity: 0.8;fill: #d2e4ff } 
		.shp2 { fill: #c7deff } 
		.shp3 { fill: #f1a34f } 
		.shp4 { fill: #ffc48a } 
		.shp5 { fill: #b74b42 } 
		.shp6 { fill: #cc6f6a } 
		.shp7 { fill: #bdd8ff } 
		.shp8 { fill: #afd1f9 } 
		.shp9 { fill: #d39d71 } 
		.shp10 { fill: #eab888 } 
		.shp11 { fill: #a8d29f } 
		.shp12 { fill: #699ff0 } 
		.shp13 { fill: #2b478b } 
		.shp14 { fill: #ee9849 } 
		.shp15 { fill: #2a4e96 } 
		.shp16 { fill: #c65447 } 
		.shp17 { fill: #233862 } 
		.shp18 { fill: #ffb27d } 
		.shp19 { fill: #e78b37 } 
		.shp20 { fill: #e8945b } 
		.shp21 { fill: #35488b } 
		.shp22 { fill: #2c3a64 } 
		.shp23 { fill: #a53d38 } 
		.shp24 { fill: #ffffff } 
		.shp25 { fill: #163560 } 
		.shp26 { fill: #e58638 } 
		.shp27 { fill: #e49963 } 
		.shp28 { fill: #365da4 } 
		.shp29 { fill: #466aa5 } 
		.shp30 { fill: #deedff } 
		.shp31 { fill: #739af0 } 
		.shp32 { opacity: 0.902;fill: #afcdfb } 
		.shp33 { fill: #2e3552 } 
	</style>
	<g id="Layer 1">
		<g id="&lt;Group&gt;">
			<path id="&lt;Path&gt;" class="shp0" d="M2693.67 1612.93C2722.75 1557.54 2746.48 1492.8 2764.87 1418.68C2841.64 1107.83 2718.15 857.96 2469.7 711.87C2351.54 642.28 2242.48 632.69 2147.94 641.38C2040.47 651.27 1951.77 684.83 1889.78 680.79C1827.08 676.7 1783.49 616.53 1717.1 543.6C1632.16 450.14 1516.13 344.59 1292.08 297.6C1049.03 246.58 655.49 251.27 517.89 451.85C421.95 591.62 489.59 775.51 576.09 921.73C698.7 1128.95 538.26 1165.06 393.28 1247.24C283.22 1309.65 182.07 1402.26 220.56 1612.93L2693.67 1612.93Z" />
			<path id="&lt;Path&gt;" class="shp1" d="M2764.87 1418.68C2830.39 1153.39 2750.04 932.51 2570.64 782.65L1446.47 782.65L1450.04 1612.93L2693.67 1612.93C2722.75 1557.54 2746.48 1492.8 2764.87 1418.68Z" />
			<path id="&lt;Path&gt;" class="shp2" d="M1921.24 1607.41L2270.22 1607.41C2276.43 1607.41 2281.51 1602.32 2281.51 1596.11L2281.51 741C2281.51 734.79 2276.43 729.71 2270.22 729.71L1921.24 729.71C1915.03 729.71 1909.95 734.79 1909.95 741L1909.95 1596.11C1909.95 1602.32 1915.03 1607.41 1921.24 1607.41Z" />
			<path id="&lt;Path&gt;" class="shp1" d="M1388.57 783.12L507.61 783.12C526.21 831.23 550.31 878.15 576.09 921.73C698.7 1128.95 538.26 1165.06 393.28 1247.24C283.22 1309.65 182.07 1402.26 220.56 1612.93L1388.57 1612.93L1388.57 783.12Z" />
			<g id="&lt;Group&gt;">
				<path id="&lt;Path&gt;" class="shp2" d="M1482.65 1062.7C1482.65 1069.09 1487.87 1074.31 1494.26 1074.31L1864.64 1074.31L1864.64 1051.09L1776.99 1051.09L1776.99 988.76L1762.63 974.41L1762.63 968.45L1746 968.45L1745.38 975.12L1730.79 989.47L1730.79 1051.09L1697.84 1051.09L1697.84 988.76L1683.48 974.41L1683.48 968.45L1666.85 968.45L1666.22 975.12L1651.63 989.47L1651.63 1051.09L1629.88 1051.09L1629.88 988.76L1615.53 974.41L1615.53 968.45L1598.9 968.45L1598.27 975.12L1583.68 989.47L1583.68 1051.09L1561.78 1051.09L1561.78 988.76L1547.43 974.41L1547.43 968.45L1530.81 968.45L1530.18 975.12L1515.59 989.47L1515.59 1051.09L1494.26 1051.09C1491.06 1051.09 1488.16 1052.39 1486.06 1054.49C1483.96 1056.6 1482.65 1059.51 1482.65 1062.7Z" />
				<path id="&lt;Path&gt;" class="shp2" d="M1482.65 1211.84C1482.65 1218.23 1487.87 1223.46 1494.26 1223.46L1864.64 1223.46L1864.64 1200.22L1756.95 1200.22L1756.95 1157.94L1704.64 1157.94L1704.64 1200.22L1691.17 1200.22L1691.17 1157.94L1638.86 1157.94L1638.86 1200.22L1627.64 1200.22L1627.64 1157.94L1575.33 1157.94L1575.33 1200.22L1561.78 1200.22L1561.78 1157.94L1509.47 1157.94L1509.47 1200.22L1494.26 1200.22C1491.06 1200.22 1488.16 1201.53 1486.06 1203.64C1483.96 1205.75 1482.65 1208.65 1482.65 1211.84Z" />
				<path id="&lt;Path&gt;" class="shp2" d="M1482.65 1360.98C1482.65 1367.37 1487.87 1372.59 1494.26 1372.59L1864.64 1372.59L1864.64 1349.37L1798.13 1349.37C1808.98 1349.37 1817.96 1341 1818.93 1330.4L1823.94 1333.93L1823.94 1321.23L1818.88 1326.08C1817.69 1315.71 1808.82 1307.58 1798.13 1307.58L1755.85 1307.58C1745.49 1307.58 1736.83 1315.22 1735.23 1325.15L1731.14 1321.23L1731.14 1333.93L1735.13 1331.12C1736.44 1341.38 1745.25 1349.37 1755.85 1349.37L1694.63 1349.37C1705.48 1349.37 1714.46 1341 1715.44 1330.4L1720.44 1333.93L1720.44 1321.23L1715.39 1326.08C1714.19 1315.71 1705.33 1307.58 1694.63 1307.58L1652.35 1307.58C1641.99 1307.58 1633.33 1315.22 1631.73 1325.15L1627.64 1321.23L1627.64 1333.93L1631.63 1331.12C1632.94 1341.38 1641.75 1349.37 1652.35 1349.37L1583.47 1349.37C1594.32 1349.37 1603.3 1341 1604.28 1330.4L1609.28 1333.93L1609.28 1321.23L1604.23 1326.08C1603.03 1315.71 1594.16 1307.58 1583.47 1307.58L1541.19 1307.58C1530.83 1307.58 1522.17 1315.22 1520.57 1325.15L1516.48 1321.23L1516.48 1333.93L1520.47 1331.12C1521.78 1341.38 1530.59 1349.37 1541.19 1349.37L1494.26 1349.37C1491.06 1349.37 1488.16 1350.67 1486.06 1352.77C1483.96 1354.88 1482.65 1357.78 1482.65 1360.98Z" />
				<path id="&lt;Path&gt;" class="shp2" d="M1482.65 1510.13C1482.65 1516.52 1487.87 1521.74 1494.26 1521.74L1864.64 1521.74L1864.64 1498.51L1768.4 1498.51L1768.4 1443.28C1768.4 1435.45 1763.69 1428.73 1756.95 1425.77C1757.4 1425.46 1757.7 1424.93 1757.7 1424.34C1757.7 1423.38 1756.91 1422.59 1755.95 1422.59L1743.25 1422.59C1742.28 1422.59 1741.49 1423.38 1741.49 1424.34C1741.49 1424.85 1741.71 1425.31 1742.06 1425.63C1735.43 1428.43 1730.79 1435 1730.79 1442.65L1730.79 1498.51L1716.64 1498.51L1716.64 1443.28C1716.64 1435.45 1711.92 1428.73 1705.19 1425.77C1705.64 1425.46 1705.94 1424.93 1705.94 1424.34C1705.94 1423.38 1705.15 1422.59 1704.19 1422.59L1691.48 1422.59C1690.51 1422.59 1689.73 1423.38 1689.73 1424.34C1689.73 1424.85 1689.95 1425.31 1690.3 1425.63C1683.67 1428.43 1679.03 1435 1679.03 1442.65L1679.03 1498.51L1664.56 1498.51L1664.56 1443.28C1664.56 1435.45 1659.84 1428.73 1653.1 1425.77C1653.55 1425.46 1653.86 1424.93 1653.86 1424.34C1653.86 1423.38 1653.06 1422.59 1652.1 1422.59L1639.39 1422.59C1638.43 1422.59 1637.64 1423.38 1637.64 1424.34C1637.64 1424.85 1637.86 1425.31 1638.21 1425.63C1631.59 1428.43 1626.94 1435 1626.94 1442.65L1626.94 1498.51L1612.32 1498.51L1612.32 1443.28C1612.32 1435.45 1607.61 1428.73 1600.87 1425.77C1601.32 1425.46 1601.62 1424.93 1601.62 1424.34C1601.62 1423.38 1600.83 1422.59 1599.87 1422.59L1587.15 1422.59C1586.19 1422.59 1585.4 1423.38 1585.4 1424.34C1585.4 1424.85 1585.63 1425.31 1585.98 1425.63C1579.35 1428.43 1574.7 1435 1574.7 1442.65L1574.7 1498.51L1561.03 1498.51L1561.03 1443.28C1561.03 1435.45 1556.31 1428.73 1549.57 1425.77C1550.03 1425.46 1550.33 1424.93 1550.33 1424.34C1550.33 1423.38 1549.54 1422.59 1548.58 1422.59L1535.86 1422.59C1534.9 1422.59 1534.11 1423.38 1534.11 1424.34C1534.11 1424.85 1534.34 1425.31 1534.69 1425.63C1528.06 1428.43 1523.41 1435 1523.41 1442.65L1523.41 1498.51L1494.26 1498.51C1491.06 1498.51 1488.16 1499.82 1486.06 1501.92C1483.96 1504.03 1482.65 1506.93 1482.65 1510.13Z" />
				<path id="&lt;Path&gt;" class="shp2" d="M1561.03 846.71C1561.03 838.88 1556.31 832.16 1549.58 829.2C1550.03 828.89 1550.33 828.36 1550.33 827.77C1550.33 826.81 1549.54 826.02 1548.57 826.02L1535.87 826.02C1534.9 826.02 1534.11 826.81 1534.11 827.77C1534.11 828.28 1534.34 828.73 1534.68 829.06C1528.06 831.87 1523.41 838.43 1523.41 846.08L1523.41 901.94L1561.03 901.94L1561.03 846.71Z" />
				<path id="&lt;Path&gt;" class="shp2" d="M1612.32 846.71C1612.32 838.88 1607.61 832.16 1600.87 829.2C1601.32 828.89 1601.62 828.36 1601.62 827.77C1601.62 826.81 1600.83 826.02 1599.87 826.02L1587.16 826.02C1586.2 826.02 1585.41 826.81 1585.41 827.77C1585.41 828.28 1585.63 828.73 1585.98 829.06C1579.35 831.87 1574.71 838.43 1574.71 846.08L1574.71 901.94L1612.32 901.94L1612.32 846.71Z" />
				<path id="&lt;Path&gt;" class="shp2" d="M1664.55 846.71C1664.55 838.88 1659.84 832.16 1653.1 829.2C1653.55 828.89 1653.85 828.36 1653.85 827.77C1653.85 826.81 1653.06 826.02 1652.1 826.02L1639.39 826.02C1638.43 826.02 1637.64 826.81 1637.64 827.77C1637.64 828.28 1637.86 828.73 1638.21 829.06C1631.59 831.87 1626.94 838.43 1626.94 846.08L1626.94 901.94L1664.55 901.94L1664.55 846.71Z" />
				<path id="&lt;Path&gt;" class="shp2" d="M1716.64 846.71C1716.64 838.88 1711.92 832.16 1705.19 829.2C1705.64 828.89 1705.94 828.36 1705.94 827.77C1705.94 826.81 1705.15 826.02 1704.19 826.02L1691.48 826.02C1690.52 826.02 1689.73 826.81 1689.73 827.77C1689.73 828.28 1689.95 828.73 1690.3 829.06C1683.67 831.87 1679.03 838.43 1679.03 846.08L1679.03 901.94L1716.64 901.94L1716.64 846.71Z" />
				<path id="&lt;Path&gt;" class="shp2" d="M1768.4 846.71C1768.4 838.88 1763.69 832.16 1756.95 829.2C1757.4 828.89 1757.7 828.36 1757.7 827.77C1757.7 826.81 1756.91 826.02 1755.95 826.02L1743.24 826.02C1742.28 826.02 1741.49 826.81 1741.49 827.77C1741.49 828.28 1741.71 828.73 1742.06 829.06C1735.44 831.87 1730.79 838.43 1730.79 846.08L1730.79 901.94L1768.4 901.94L1768.4 846.71Z" />
			</g>
			<g id="&lt;Group&gt;">
				<path id="&lt;Path&gt;" class="shp2" d="M2305.29 1062.7C2305.29 1069.09 2310.51 1074.31 2316.9 1074.31L2687.27 1074.31L2687.27 1051.09L2599.62 1051.09L2599.62 988.76L2585.27 974.41L2585.27 968.45L2568.64 968.45L2568.02 975.12L2553.43 989.47L2553.43 1051.09L2520.47 1051.09L2520.47 988.76L2506.12 974.41L2506.12 968.45L2489.49 968.45L2488.86 975.12L2474.27 989.47L2474.27 1051.09L2452.52 1051.09L2452.52 988.76L2438.17 974.41L2438.17 968.45L2421.54 968.45L2420.91 975.12L2406.32 989.47L2406.32 1051.09L2384.42 1051.09L2384.42 988.76L2370.07 974.41L2370.07 968.45L2353.45 968.45L2352.81 975.12L2338.23 989.47L2338.23 1051.09L2316.9 1051.09C2313.7 1051.09 2310.8 1052.39 2308.69 1054.49C2306.6 1056.6 2305.29 1059.51 2305.29 1062.7Z" />
				<path id="&lt;Path&gt;" class="shp2" d="M2305.29 1211.84C2305.29 1218.23 2310.51 1223.46 2316.9 1223.46L2687.27 1223.46L2687.27 1200.22L2579.59 1200.22L2579.59 1157.94L2527.28 1157.94L2527.28 1200.22L2513.81 1200.22L2513.81 1157.94L2461.5 1157.94L2461.5 1200.22L2450.28 1200.22L2450.28 1157.94L2397.97 1157.94L2397.97 1200.22L2384.42 1200.22L2384.42 1157.94L2332.11 1157.94L2332.11 1200.22L2316.9 1200.22C2313.7 1200.22 2310.8 1201.53 2308.69 1203.64C2306.6 1205.75 2305.29 1208.65 2305.29 1211.84Z" />
				<path id="&lt;Path&gt;" class="shp2" d="M2305.29 1360.98C2305.29 1367.37 2310.51 1372.59 2316.9 1372.59L2687.27 1372.59L2687.27 1349.37L2620.77 1349.37C2631.61 1349.37 2640.59 1341 2641.57 1330.4L2646.58 1333.93L2646.58 1321.23L2641.52 1326.08C2640.33 1315.71 2631.46 1307.58 2620.77 1307.58L2578.48 1307.58C2568.12 1307.58 2559.46 1315.22 2557.87 1325.15L2553.78 1321.23L2553.78 1333.93L2557.77 1331.12C2559.08 1341.38 2567.89 1349.37 2578.48 1349.37L2517.27 1349.37C2528.11 1349.37 2537.09 1341 2538.08 1330.4L2543.08 1333.93L2543.08 1321.23L2538.02 1326.08C2536.83 1315.71 2527.96 1307.58 2517.27 1307.58L2474.99 1307.58C2464.62 1307.58 2455.96 1315.22 2454.37 1325.15L2450.28 1321.23L2450.28 1333.93L2454.27 1331.12C2455.58 1341.38 2464.39 1349.37 2474.99 1349.37L2406.11 1349.37C2416.96 1349.37 2425.93 1341 2426.91 1330.4L2431.92 1333.93L2431.92 1321.23L2426.87 1326.08C2425.67 1315.71 2416.79 1307.58 2406.11 1307.58L2363.83 1307.58C2353.46 1307.58 2344.8 1315.22 2343.21 1325.15L2339.12 1321.23L2339.12 1333.93L2343.11 1331.12C2344.42 1341.38 2353.23 1349.37 2363.83 1349.37L2316.9 1349.37C2313.7 1349.37 2310.8 1350.67 2308.69 1352.77C2306.6 1354.88 2305.29 1357.78 2305.29 1360.98Z" />
				<path id="&lt;Path&gt;" class="shp2" d="M2305.29 1510.13C2305.29 1516.52 2310.51 1521.74 2316.9 1521.74L2687.27 1521.74L2687.27 1498.51L2591.04 1498.51L2591.04 1443.28C2591.04 1435.45 2586.32 1428.73 2579.59 1425.77C2580.04 1425.46 2580.34 1424.93 2580.34 1424.34C2580.34 1423.38 2579.55 1422.59 2578.59 1422.59L2565.88 1422.59C2564.91 1422.59 2564.13 1423.38 2564.13 1424.34C2564.13 1424.85 2564.35 1425.31 2564.7 1425.63C2558.07 1428.43 2553.43 1435 2553.43 1442.65L2553.43 1498.51L2539.28 1498.51L2539.28 1443.28C2539.28 1435.45 2534.56 1428.73 2527.82 1425.77C2528.27 1425.46 2528.58 1424.93 2528.58 1424.34C2528.58 1423.38 2527.79 1422.59 2526.83 1422.59L2514.12 1422.59C2513.15 1422.59 2512.37 1423.38 2512.37 1424.34C2512.37 1424.85 2512.59 1425.31 2512.93 1425.63C2506.31 1428.43 2501.67 1435 2501.67 1442.65L2501.67 1498.51L2487.19 1498.51L2487.19 1443.28C2487.19 1435.45 2482.48 1428.73 2475.74 1425.77C2476.19 1425.46 2476.49 1424.93 2476.49 1424.34C2476.49 1423.38 2475.7 1422.59 2474.74 1422.59L2462.03 1422.59C2461.07 1422.59 2460.28 1423.38 2460.28 1424.34C2460.28 1424.85 2460.5 1425.31 2460.85 1425.63C2454.22 1428.43 2449.58 1435 2449.58 1442.65L2449.58 1498.51L2434.96 1498.51L2434.96 1443.28C2434.96 1435.45 2430.24 1428.73 2423.5 1425.77C2423.96 1425.46 2424.26 1424.93 2424.26 1424.34C2424.26 1423.38 2423.47 1422.59 2422.51 1422.59L2409.79 1422.59C2408.83 1422.59 2408.04 1423.38 2408.04 1424.34C2408.04 1424.85 2408.27 1425.31 2408.62 1425.63C2401.99 1428.43 2397.34 1435 2397.34 1442.65L2397.34 1498.51L2383.67 1498.51L2383.67 1443.28C2383.67 1435.45 2378.95 1428.73 2372.21 1425.77C2372.66 1425.46 2372.96 1424.93 2372.96 1424.34C2372.96 1423.38 2372.17 1422.59 2371.21 1422.59L2358.5 1422.59C2357.54 1422.59 2356.75 1423.38 2356.75 1424.34C2356.75 1424.85 2356.97 1425.31 2357.32 1425.63C2350.7 1428.43 2346.05 1435 2346.05 1442.65L2346.05 1498.51L2316.9 1498.51C2313.7 1498.51 2310.8 1499.82 2308.69 1501.92C2306.6 1504.03 2305.29 1506.93 2305.29 1510.13Z" />
				<path id="&lt;Path&gt;" class="shp2" d="M2383.66 846.71C2383.66 838.88 2378.95 832.16 2372.21 829.2C2372.66 828.89 2372.96 828.36 2372.96 827.77C2372.96 826.81 2372.17 826.02 2371.21 826.02L2358.5 826.02C2357.54 826.02 2356.75 826.81 2356.75 827.77C2356.75 828.28 2356.97 828.73 2357.32 829.06C2350.7 831.87 2346.05 838.43 2346.05 846.08L2346.05 901.94L2383.66 901.94L2383.66 846.71Z" />
				<path id="&lt;Path&gt;" class="shp2" d="M2434.96 846.71C2434.96 838.88 2430.24 832.16 2423.51 829.2C2423.96 828.89 2424.26 828.36 2424.26 827.77C2424.26 826.81 2423.47 826.02 2422.5 826.02L2409.8 826.02C2408.83 826.02 2408.05 826.81 2408.05 827.77C2408.05 828.28 2408.27 828.73 2408.62 829.06C2401.99 831.87 2397.35 838.43 2397.35 846.08L2397.35 901.94L2434.96 901.94L2434.96 846.71Z" />
				<path id="&lt;Path&gt;" class="shp2" d="M2487.19 846.71C2487.19 838.88 2482.48 832.16 2475.74 829.2C2476.19 828.89 2476.49 828.36 2476.49 827.77C2476.49 826.81 2475.7 826.02 2474.74 826.02L2462.03 826.02C2461.07 826.02 2460.28 826.81 2460.28 827.77C2460.28 828.28 2460.5 828.73 2460.85 829.06C2454.22 831.87 2449.58 838.43 2449.58 846.08L2449.58 901.94L2487.19 901.94L2487.19 846.71Z" />
				<path id="&lt;Path&gt;" class="shp2" d="M2539.27 846.71C2539.27 838.88 2534.56 832.16 2527.83 829.2C2528.28 828.89 2528.57 828.36 2528.57 827.77C2528.57 826.81 2527.79 826.02 2526.82 826.02L2514.12 826.02C2513.15 826.02 2512.37 826.81 2512.37 827.77C2512.37 828.28 2512.59 828.73 2512.93 829.06C2506.31 831.87 2501.67 838.43 2501.67 846.08L2501.67 901.94L2539.27 901.94L2539.27 846.71Z" />
				<path id="&lt;Path&gt;" class="shp2" d="M2591.04 846.71C2591.04 838.88 2586.33 832.16 2579.59 829.2C2580.04 828.89 2580.34 828.36 2580.34 827.77C2580.34 826.81 2579.55 826.02 2578.59 826.02L2565.88 826.02C2564.92 826.02 2564.13 826.81 2564.13 827.77C2564.13 828.28 2564.35 828.73 2564.7 829.06C2558.07 831.87 2553.43 838.43 2553.43 846.08L2553.43 901.94L2591.04 901.94L2591.04 846.71Z" />
			</g>
			<g id="&lt;Group&gt;">
				<path id="&lt;Path&gt;" class="shp1" d="M1138.22 564.46L1139.2 564.46C1142.9 564.46 1145.94 561.43 1145.94 557.72L1145.94 360.66C1145.94 356.95 1142.9 353.91 1139.2 353.91L1138.22 353.91C1134.51 353.91 1131.48 356.95 1131.48 360.66L1131.48 557.72C1131.48 561.43 1134.51 564.46 1138.22 564.46Z" />
				<path id="&lt;Path&gt;" class="shp3" d="M1142.47 525.99C1195.17 525.99 1237.89 571.17 1237.89 626.89L1047.05 626.89C1047.05 571.17 1089.77 525.99 1142.47 525.99Z" />
				<path id="&lt;Path&gt;" class="shp4" d="M1134.87 527.23C1137.61 526.63 1140.41 526.31 1143.25 526.31C1177.59 526.31 1205.42 571.34 1205.42 626.89L1188.66 626.89C1188.66 575.94 1165.24 533.85 1134.87 527.23Z" />
			</g>
			<g id="&lt;Group&gt;">
				<path id="&lt;Path&gt;" class="shp1" d="M1567.23 420.69L1567.23 557.71C1567.23 561.42 1570.26 564.46 1573.97 564.46L1574.95 564.46C1578.66 564.46 1581.69 561.42 1581.69 557.71L1581.69 434.76C1580.2 433.27 1578.71 431.8 1577.19 430.31C1573.93 427.11 1570.61 423.9 1567.23 420.69Z" />
				<path id="&lt;Path&gt;" class="shp5" d="M1578.22 525.99C1630.92 525.99 1673.64 571.17 1673.64 626.89L1482.8 626.89C1482.8 571.17 1525.53 525.99 1578.22 525.99Z" />
				<path id="&lt;Path&gt;" class="shp6" d="M1570.62 527.23C1573.36 526.63 1576.16 526.31 1579 526.31C1613.34 526.31 1641.17 571.34 1641.17 626.89L1624.41 626.89C1624.41 575.94 1600.99 533.85 1570.62 527.23Z" />
			</g>
			<g id="&lt;Group&gt;">
				<path id="&lt;Path&gt;" class="shp1" d="M693.16 564.46L694.13 564.46C697.84 564.46 700.87 561.43 700.87 557.72L700.87 360.66C700.87 356.95 697.84 353.91 694.13 353.91L693.16 353.91C689.45 353.91 686.41 356.95 686.41 360.66L686.41 557.72C686.41 561.43 689.45 564.46 693.16 564.46Z" />
				<path id="&lt;Path&gt;" class="shp5" d="M697.41 525.99C750.11 525.99 792.83 571.17 792.83 626.89L601.99 626.89C601.99 571.17 644.71 525.99 697.41 525.99Z" />
				<path id="&lt;Path&gt;" class="shp6" d="M689.81 527.23C692.55 526.63 695.34 526.31 698.19 526.31C732.52 526.31 760.35 571.34 760.35 626.89L743.59 626.89C743.59 575.94 720.18 533.85 689.81 527.23Z" />
			</g>
			<path id="&lt;Path&gt;" class="shp1" d="M517.89 451.85L1622.75 451.85C1547.3 389.14 1444.87 329.65 1292.08 297.6C1230.25 284.62 1162.73 275.74 1093.86 272.05C1079.51 271.28 1065.1 270.74 1050.67 270.44C1042.01 270.26 1033.34 270.17 1024.67 270.16C1003.23 270.12 981.79 270.63 960.47 271.73C952.9 272.1 945.35 272.56 937.83 273.08C845.6 279.55 756.74 297.01 681.76 328.21C612.56 357 555.19 397.48 517.89 451.85Z" />
			<path id="&lt;Path&gt;" class="shp7" d="M578.12 925.17L1275.15 925.17C1281.54 925.17 1286.77 919.95 1286.77 913.56C1286.77 910.36 1285.46 907.46 1283.36 905.35C1281.25 903.25 1278.35 901.94 1275.15 901.94L564.64 901.94L578.12 925.17Z" />
			<path id="&lt;Path&gt;" class="shp7" d="M616.82 1074.31L1275.15 1074.31C1281.54 1074.31 1286.77 1069.09 1286.77 1062.7C1286.77 1059.51 1285.46 1056.6 1283.36 1054.49C1281.25 1052.39 1278.35 1051.09 1275.15 1051.09L619.6 1051.09C619.42 1059.25 618.47 1066.97 616.82 1074.31Z" />
			<path id="&lt;Path&gt;" class="shp7" d="M437.51 1223.46L1275.15 1223.46C1281.54 1223.46 1286.77 1218.23 1286.77 1211.84C1286.77 1208.65 1285.46 1205.75 1283.36 1203.64C1281.25 1201.53 1278.35 1200.22 1275.15 1200.22L482.61 1200.22C467.97 1207.87 452.83 1215.53 437.51 1223.46Z" />
			<path id="&lt;Path&gt;" class="shp7" d="M251.26 1372.59L1275.15 1372.59C1281.54 1372.59 1286.77 1367.37 1286.77 1360.98C1286.77 1357.78 1285.46 1354.88 1283.36 1352.77C1281.25 1350.67 1278.35 1349.37 1275.15 1349.37L267.17 1349.37C261.51 1356.75 256.19 1364.48 251.26 1372.59Z" />
			<path id="&lt;Path&gt;" class="shp7" d="M212.23 1521.74L1275.15 1521.74C1281.54 1521.74 1286.77 1516.52 1286.77 1510.13C1286.77 1506.93 1285.46 1504.03 1283.36 1501.92C1281.25 1499.82 1278.35 1498.51 1275.15 1498.51L213.06 1498.51C212.54 1506.04 212.26 1513.78 212.23 1521.74Z" />
			<path id="&lt;Path&gt;" class="shp7" d="M923.48 1608.26C929.69 1608.26 934.77 1603.17 934.77 1596.96L934.77 825.71C934.77 819.5 929.69 814.41 923.48 814.41C917.27 814.41 912.19 819.5 912.19 825.71L912.19 1596.96C912.19 1603.17 917.27 1608.26 923.48 1608.26Z" />
			<path id="&lt;Path&gt;" class="shp7" d="M1219.84 829.2C1219.39 828.89 1219.09 828.36 1219.09 827.77C1219.09 826.81 1219.88 826.02 1220.84 826.02L1233.55 826.02C1234.51 826.02 1235.3 826.81 1235.3 827.77C1235.3 828.28 1235.08 828.73 1234.73 829.06C1241.36 831.87 1246 838.43 1246 846.08L1246 901.94L1208.39 901.94L1208.39 846.71C1208.39 838.88 1213.1 832.16 1219.84 829.2Z" />
			<path id="&lt;Path&gt;" class="shp7" d="M1168.55 829.2C1168.1 828.89 1167.8 828.36 1167.8 827.77C1167.8 826.81 1168.59 826.02 1169.55 826.02L1182.26 826.02C1183.22 826.02 1184.01 826.81 1184.01 827.77C1184.01 828.28 1183.79 828.73 1183.44 829.06C1190.06 831.87 1194.71 838.43 1194.71 846.08L1194.71 901.94L1157.1 901.94L1157.1 846.71C1157.1 838.88 1161.81 832.16 1168.55 829.2Z" />
			<path id="&lt;Path&gt;" class="shp7" d="M1116.31 829.2C1115.86 828.89 1115.56 828.36 1115.56 827.77C1115.56 826.81 1116.35 826.02 1117.31 826.02L1130.02 826.02C1130.98 826.02 1131.77 826.81 1131.77 827.77C1131.77 828.28 1131.55 828.73 1131.2 829.06C1137.83 831.87 1142.47 838.43 1142.47 846.08L1142.47 901.94L1104.86 901.94L1104.86 846.71C1104.86 838.88 1109.57 832.16 1116.31 829.2Z" />
			<path id="&lt;Path&gt;" class="shp7" d="M1064.23 829.2C1063.78 828.89 1063.48 828.36 1063.48 827.77C1063.48 826.81 1064.27 826.02 1065.23 826.02L1077.94 826.02C1078.9 826.02 1079.69 826.81 1079.69 827.77C1079.69 828.28 1079.47 828.73 1079.12 829.06C1085.74 831.87 1090.39 838.43 1090.39 846.08L1090.39 901.94L1052.78 901.94L1052.78 846.71C1052.78 838.88 1057.49 832.16 1064.23 829.2Z" />
			<path id="&lt;Path&gt;" class="shp7" d="M1012.46 829.2C1012.01 828.89 1011.71 828.36 1011.71 827.77C1011.71 826.81 1012.5 826.02 1013.47 826.02L1026.17 826.02C1027.14 826.02 1027.92 826.81 1027.92 827.77C1027.92 828.28 1027.7 828.73 1027.36 829.06C1033.98 831.87 1038.62 838.43 1038.62 846.08L1038.62 901.94L1001.02 901.94L1001.02 846.71C1001.02 838.88 1005.73 832.16 1012.46 829.2Z" />
			<path id="&lt;Path&gt;" class="shp7" d="M1219.84 1425.77C1219.39 1425.46 1219.09 1424.93 1219.09 1424.34C1219.09 1423.38 1219.88 1422.59 1220.84 1422.59L1233.55 1422.59C1234.51 1422.59 1235.3 1423.38 1235.3 1424.34C1235.3 1424.85 1235.08 1425.3 1234.73 1425.63C1241.36 1428.44 1246 1435 1246 1442.65L1246 1498.51L1208.39 1498.51L1208.39 1443.28C1208.39 1435.45 1213.1 1428.73 1219.84 1425.77Z" />
			<path id="&lt;Path&gt;" class="shp7" d="M1168.55 1425.77C1168.1 1425.46 1167.8 1424.93 1167.8 1424.34C1167.8 1423.38 1168.59 1422.59 1169.55 1422.59L1182.26 1422.59C1183.22 1422.59 1184.01 1423.38 1184.01 1424.34C1184.01 1424.85 1183.79 1425.3 1183.44 1425.63C1190.06 1428.44 1194.71 1435 1194.71 1442.65L1194.71 1498.51L1157.1 1498.51L1157.1 1443.28C1157.1 1435.45 1161.81 1428.73 1168.55 1425.77Z" />
			<path id="&lt;Path&gt;" class="shp7" d="M1116.31 1425.77C1115.86 1425.46 1115.56 1424.93 1115.56 1424.34C1115.56 1423.38 1116.35 1422.59 1117.31 1422.59L1130.02 1422.59C1130.98 1422.59 1131.77 1423.38 1131.77 1424.34C1131.77 1424.85 1131.55 1425.3 1131.2 1425.63C1137.83 1428.44 1142.47 1435 1142.47 1442.65L1142.47 1498.51L1104.86 1498.51L1104.86 1443.28C1104.86 1435.45 1109.57 1428.73 1116.31 1425.77Z" />
			<path id="&lt;Path&gt;" class="shp7" d="M1064.23 1425.77C1063.78 1425.46 1063.48 1424.93 1063.48 1424.34C1063.48 1423.38 1064.27 1422.59 1065.23 1422.59L1077.94 1422.59C1078.9 1422.59 1079.69 1423.38 1079.69 1424.34C1079.69 1424.85 1079.47 1425.3 1079.12 1425.63C1085.74 1428.44 1090.39 1435 1090.39 1442.65L1090.39 1498.51L1052.78 1498.51L1052.78 1443.28C1052.78 1435.45 1057.49 1428.73 1064.23 1425.77Z" />
			<path id="&lt;Path&gt;" class="shp7" d="M1012.46 1425.77C1012.01 1425.46 1011.71 1424.93 1011.71 1424.34C1011.71 1423.38 1012.5 1422.59 1013.47 1422.59L1026.17 1422.59C1027.14 1422.59 1027.92 1423.38 1027.92 1424.34C1027.92 1424.85 1027.7 1425.3 1027.36 1425.63C1033.98 1428.44 1038.62 1435 1038.62 1442.65L1038.62 1498.51L1001.02 1498.51L1001.02 1443.28C1001.02 1435.45 1005.73 1428.73 1012.46 1425.77Z" />
			<g id="&lt;Group&gt;">
				<path id="&lt;Path&gt;" class="shp8" d="M1235.32 968.45L1221.98 968.45L1221.98 974.41L1207.63 988.76L1207.63 1051.09L1220.42 1051.09L1236.02 975.74L1235.32 968.45Z" />
				<path id="&lt;Path&gt;" class="shp7" d="M1235.32 975.12L1235.32 968.45L1238.61 968.45L1239.24 975.12L1253.83 989.47L1253.83 1051.09L1220.42 1051.09L1220.42 989.47L1235.32 975.12Z" />
			</g>
			<g id="&lt;Group&gt;">
				<path id="&lt;Path&gt;" class="shp8" d="M1167.22 968.45L1153.89 968.45L1153.89 974.41L1139.53 988.76L1139.53 1051.09L1152.32 1051.09L1167.93 975.74L1167.22 968.45Z" />
				<path id="&lt;Path&gt;" class="shp7" d="M1167.22 975.12L1167.22 968.45L1170.52 968.45L1171.14 975.12L1185.73 989.47L1185.73 1051.09L1152.32 1051.09L1152.32 989.47L1167.22 975.12Z" />
			</g>
			<g id="&lt;Group&gt;">
				<path id="&lt;Path&gt;" class="shp8" d="M1099.27 968.45L1085.94 968.45L1085.94 974.41L1071.58 988.76L1071.58 1051.09L1084.37 1051.09L1099.97 975.74L1099.27 968.45Z" />
				<path id="&lt;Path&gt;" class="shp7" d="M1099.27 975.12L1099.27 968.45L1102.56 968.45L1103.19 975.12L1117.78 989.47L1117.78 1051.09L1084.37 1051.09L1084.37 989.47L1099.27 975.12Z" />
			</g>
			<g id="&lt;Group&gt;">
				<path id="&lt;Path&gt;" class="shp8" d="M523.43 1266.73L510.1 1266.73L510.1 1272.69L495.75 1287.04L495.75 1349.37L508.53 1349.37L524.14 1274.02L523.43 1266.73Z" />
				<path id="&lt;Path&gt;" class="shp7" d="M523.43 1273.4L523.43 1266.73L526.73 1266.73L527.36 1273.4L541.94 1287.75L541.94 1349.37L508.53 1349.37L508.53 1287.75L523.43 1273.4Z" />
			</g>
			<g id="&lt;Group&gt;">
				<path id="&lt;Path&gt;" class="shp8" d="M455.48 1266.73L442.15 1266.73L442.15 1272.69L427.79 1287.04L427.79 1349.37L440.58 1349.37L456.19 1274.02L455.48 1266.73Z" />
				<path id="&lt;Path&gt;" class="shp7" d="M455.48 1273.4L455.48 1266.73L458.77 1266.73L459.4 1273.4L473.99 1287.75L473.99 1349.37L440.58 1349.37L440.58 1287.75L455.48 1273.4Z" />
			</g>
			<g id="&lt;Group&gt;">
				<path id="&lt;Path&gt;" class="shp8" d="M1020.11 968.45L1006.78 968.45L1006.78 974.41L992.43 988.76L992.43 1051.09L1005.21 1051.09L1020.82 975.74L1020.11 968.45Z" />
				<path id="&lt;Path&gt;" class="shp7" d="M1020.11 975.12L1020.11 968.45L1023.41 968.45L1024.04 975.12L1038.62 989.47L1038.62 1051.09L1005.21 1051.09L1005.21 989.47L1020.11 975.12Z" />
			</g>
			<path id="&lt;Path&gt;" class="shp7" d="M1207.63 1200.22L1259.94 1200.22L1259.94 1157.94L1207.63 1157.94L1207.63 1200.22Z" />
			<path id="&lt;Path&gt;" class="shp7" d="M1141.77 1200.22L1194.08 1200.22L1194.08 1157.94L1141.77 1157.94L1141.77 1200.22Z" />
			<path id="&lt;Path&gt;" class="shp7" d="M1078.24 1200.22L1130.56 1200.22L1130.56 1157.94L1078.24 1157.94L1078.24 1200.22Z" />
			<path id="&lt;Path&gt;" class="shp7" d="M1012.47 1200.22L1064.78 1200.22L1064.78 1157.94L1012.47 1157.94L1012.47 1200.22Z" />
			<g id="&lt;Group&gt;">
				<path id="&lt;Path&gt;" class="shp7" d="M1185.94 1349.37L1228.23 1349.37C1239.72 1349.37 1249.12 1339.96 1249.12 1328.47C1249.12 1316.98 1239.72 1307.58 1228.23 1307.58L1185.94 1307.58C1174.45 1307.58 1165.04 1316.98 1165.04 1328.47C1165.04 1339.96 1174.45 1349.37 1185.94 1349.37Z" />
				<path id="&lt;Path&gt;" class="shp7" d="M1252.93 1321.23L1252.93 1333.93L1245.31 1328.56L1252.93 1321.23Z" />
				<path id="&lt;Path&gt;" class="shp7" d="M1160.13 1321.23L1160.13 1333.93L1167.76 1328.56L1160.13 1321.23Z" />
			</g>
			<g id="&lt;Group&gt;">
				<path id="&lt;Path&gt;" class="shp7" d="M1074.78 1349.37L1117.07 1349.37C1128.56 1349.37 1137.96 1339.96 1137.96 1328.47C1137.96 1316.98 1128.56 1307.58 1117.07 1307.58L1074.78 1307.58C1063.28 1307.58 1053.88 1316.98 1053.88 1328.47C1053.88 1339.96 1063.28 1349.37 1074.78 1349.37Z" />
				<path id="&lt;Path&gt;" class="shp7" d="M1141.77 1321.23L1141.77 1333.93L1134.15 1328.56L1141.77 1321.23Z" />
				<path id="&lt;Path&gt;" class="shp7" d="M1048.97 1321.23L1048.97 1333.93L1056.6 1328.56L1048.97 1321.23Z" />
			</g>
			<g id="&lt;Group&gt;">
				<path id="&lt;Path&gt;" class="shp7" d="M971.28 1349.37L1013.57 1349.37C1025.06 1349.37 1034.46 1339.96 1034.46 1328.47C1034.46 1316.98 1025.06 1307.58 1013.57 1307.58L971.28 1307.58C959.79 1307.58 950.38 1316.98 950.38 1328.47C950.38 1339.96 959.79 1349.37 971.28 1349.37Z" />
				<path id="&lt;Path&gt;" class="shp7" d="M1038.27 1321.23L1038.27 1333.93L1030.65 1328.56L1038.27 1321.23Z" />
				<path id="&lt;Path&gt;" class="shp7" d="M945.47 1321.23L945.47 1333.93L953.1 1328.56L945.47 1321.23Z" />
			</g>
			<path id="&lt;Path&gt;" class="shp7" d="M839 829.2C838.55 828.89 838.25 828.36 838.25 827.77C838.25 826.81 839.04 826.02 840.01 826.02L852.71 826.02C853.68 826.02 854.46 826.81 854.46 827.77C854.46 828.28 854.24 828.73 853.89 829.06C860.52 831.87 865.16 838.43 865.16 846.08L865.16 901.94L827.55 901.94L827.55 846.71C827.55 838.88 832.27 832.16 839 829.2Z" />
			<path id="&lt;Path&gt;" class="shp7" d="M787.71 829.2C787.26 828.89 786.96 828.36 786.96 827.77C786.96 826.81 787.75 826.02 788.71 826.02L801.42 826.02C802.38 826.02 803.17 826.81 803.17 827.77C803.17 828.28 802.95 828.73 802.6 829.06C809.23 831.87 813.87 838.43 813.87 846.08L813.87 901.94L776.26 901.94L776.26 846.71C776.26 838.88 780.97 832.16 787.71 829.2Z" />
			<path id="&lt;Path&gt;" class="shp7" d="M735.48 829.2C735.02 828.89 734.73 828.36 734.73 827.77C734.73 826.81 735.52 826.02 736.48 826.02L749.19 826.02C750.15 826.02 750.94 826.81 750.94 827.77C750.94 828.28 750.72 828.73 750.37 829.06C756.99 831.87 761.64 838.43 761.64 846.08L761.64 901.94L724.03 901.94L724.03 846.71C724.03 838.88 728.74 832.16 735.48 829.2Z" />
			<path id="&lt;Path&gt;" class="shp7" d="M683.39 829.2C682.94 828.89 682.64 828.36 682.64 827.77C682.64 826.81 683.43 826.02 684.39 826.02L697.1 826.02C698.06 826.02 698.85 826.81 698.85 827.77C698.85 828.28 698.63 828.73 698.28 829.06C704.91 831.87 709.55 838.43 709.55 846.08L709.55 901.94L671.94 901.94L671.94 846.71C671.94 838.88 676.65 832.16 683.39 829.2Z" />
			<path id="&lt;Path&gt;" class="shp7" d="M631.63 829.2C631.18 828.89 630.88 828.36 630.88 827.77C630.88 826.81 631.67 826.02 632.63 826.02L645.34 826.02C646.3 826.02 647.09 826.81 647.09 827.77C647.09 828.28 646.87 828.73 646.52 829.06C653.14 831.87 657.79 838.43 657.79 846.08L657.79 901.94L620.18 901.94L620.18 846.71C620.18 838.88 624.89 832.16 631.63 829.2Z" />
			<path id="&lt;Path&gt;" class="shp7" d="M839 1425.77C838.55 1425.46 838.25 1424.93 838.25 1424.34C838.25 1423.38 839.04 1422.59 840.01 1422.59L852.71 1422.59C853.68 1422.59 854.46 1423.38 854.46 1424.34C854.46 1424.85 854.24 1425.3 853.89 1425.63C860.52 1428.44 865.16 1435 865.16 1442.65L865.16 1498.51L827.55 1498.51L827.55 1443.28C827.55 1435.45 832.27 1428.73 839 1425.77Z" />
			<path id="&lt;Path&gt;" class="shp7" d="M787.71 1425.77C787.26 1425.46 786.96 1424.93 786.96 1424.34C786.96 1423.38 787.75 1422.59 788.71 1422.59L801.42 1422.59C802.38 1422.59 803.17 1423.38 803.17 1424.34C803.17 1424.85 802.95 1425.3 802.6 1425.63C809.23 1428.44 813.87 1435 813.87 1442.65L813.87 1498.51L776.26 1498.51L776.26 1443.28C776.26 1435.45 780.97 1428.73 787.71 1425.77Z" />
			<path id="&lt;Path&gt;" class="shp7" d="M735.48 1425.77C735.02 1425.46 734.73 1424.93 734.73 1424.34C734.73 1423.38 735.52 1422.59 736.48 1422.59L749.19 1422.59C750.15 1422.59 750.94 1423.38 750.94 1424.34C750.94 1424.85 750.72 1425.3 750.37 1425.63C756.99 1428.44 761.64 1435 761.64 1442.65L761.64 1498.51L724.03 1498.51L724.03 1443.28C724.03 1435.45 728.74 1428.73 735.48 1425.77Z" />
			<path id="&lt;Path&gt;" class="shp7" d="M683.39 1425.77C682.94 1425.46 682.64 1424.93 682.64 1424.34C682.64 1423.38 683.43 1422.59 684.39 1422.59L697.1 1422.59C698.06 1422.59 698.85 1423.38 698.85 1424.34C698.85 1424.85 698.63 1425.3 698.28 1425.63C704.91 1428.44 709.55 1435 709.55 1442.65L709.55 1498.51L671.94 1498.51L671.94 1443.28C671.94 1435.45 676.65 1428.73 683.39 1425.77Z" />
			<path id="&lt;Path&gt;" class="shp7" d="M631.63 1425.77C631.18 1425.46 630.88 1424.93 630.88 1424.34C630.88 1423.38 631.67 1422.59 632.63 1422.59L645.34 1422.59C646.3 1422.59 647.09 1423.38 647.09 1424.34C647.09 1424.85 646.87 1425.3 646.52 1425.63C653.14 1428.44 657.79 1435 657.79 1442.65L657.79 1498.51L620.18 1498.51L620.18 1443.28C620.18 1435.45 624.89 1428.73 631.63 1425.77Z" />
			<g id="&lt;Group&gt;">
				<path id="&lt;Path&gt;" class="shp8" d="M854.48 968.45L841.15 968.45L841.15 974.41L826.8 988.76L826.8 1051.09L839.58 1051.09L855.19 975.74L854.48 968.45Z" />
				<path id="&lt;Path&gt;" class="shp7" d="M854.48 975.12L854.48 968.45L857.77 968.45L858.4 975.12L872.99 989.47L872.99 1051.09L839.58 1051.09L839.58 989.47L854.48 975.12Z" />
			</g>
			<g id="&lt;Group&gt;">
				<path id="&lt;Path&gt;" class="shp8" d="M786.39 968.45L773.05 968.45L773.05 974.41L758.7 988.76L758.7 1051.09L771.48 1051.09L787.09 975.74L786.39 968.45Z" />
				<path id="&lt;Path&gt;" class="shp7" d="M786.39 975.12L786.39 968.45L789.68 968.45L790.31 975.12L804.89 989.47L804.89 1051.09L771.48 1051.09L771.48 989.47L786.39 975.12Z" />
			</g>
			<g id="&lt;Group&gt;">
				<path id="&lt;Path&gt;" class="shp8" d="M567.87 1415.88L554.53 1415.88L554.53 1421.84L540.18 1436.19L540.18 1498.51L552.96 1498.51L568.57 1423.17L567.87 1415.88Z" />
				<path id="&lt;Path&gt;" class="shp7" d="M567.87 1422.54L567.87 1415.88L571.16 1415.88L571.79 1422.54L586.37 1436.89L586.37 1498.51L552.96 1498.51L552.96 1436.89L567.87 1422.54Z" />
			</g>
			<g id="&lt;Group&gt;">
				<path id="&lt;Path&gt;" class="shp8" d="M499.77 1415.88L486.44 1415.88L486.44 1421.84L472.08 1436.19L472.08 1498.51L484.87 1498.51L500.48 1423.17L499.77 1415.88Z" />
				<path id="&lt;Path&gt;" class="shp7" d="M499.77 1422.54L499.77 1415.88L503.06 1415.88L503.69 1422.54L518.28 1436.89L518.28 1498.51L484.87 1498.51L484.87 1436.89L499.77 1422.54Z" />
			</g>
			<g id="&lt;Group&gt;">
				<path id="&lt;Path&gt;" class="shp8" d="M419 1415.88L405.66 1415.88L405.66 1421.84L391.31 1436.19L391.31 1498.51L404.1 1498.51L419.7 1423.17L419 1415.88Z" />
				<path id="&lt;Path&gt;" class="shp7" d="M419 1422.54L419 1415.88L422.29 1415.88L422.92 1422.54L437.51 1436.89L437.51 1498.51L404.1 1498.51L404.1 1436.89L419 1422.54Z" />
			</g>
			<g id="&lt;Group&gt;">
				<path id="&lt;Path&gt;" class="shp8" d="M350.9 1415.88L337.57 1415.88L337.57 1421.84L323.22 1436.19L323.22 1498.51L336 1498.51L351.61 1423.17L350.9 1415.88Z" />
				<path id="&lt;Path&gt;" class="shp7" d="M350.9 1422.54L350.9 1415.88L354.2 1415.88L354.82 1422.54L369.41 1436.89L369.41 1498.51L336 1498.51L336 1436.89L350.9 1422.54Z" />
			</g>
			<g id="&lt;Group&gt;">
				<path id="&lt;Path&gt;" class="shp8" d="M718.43 968.45L705.1 968.45L705.1 974.41L690.75 988.76L690.75 1051.09L703.53 1051.09L719.14 975.74L718.43 968.45Z" />
				<path id="&lt;Path&gt;" class="shp7" d="M718.43 975.12L718.43 968.45L721.73 968.45L722.35 975.12L736.94 989.47L736.94 1051.09L703.53 1051.09L703.53 989.47L718.43 975.12Z" />
			</g>
			<path id="&lt;Path&gt;" class="shp7" d="M826.8 1200.22L879.11 1200.22L879.11 1157.94L826.8 1157.94L826.8 1200.22Z" />
			<path id="&lt;Path&gt;" class="shp7" d="M760.94 1200.22L813.25 1200.22L813.25 1157.94L760.94 1157.94L760.94 1200.22Z" />
			<path id="&lt;Path&gt;" class="shp7" d="M697.41 1200.22L749.72 1200.22L749.72 1157.94L697.41 1157.94L697.41 1200.22Z" />
			<path id="&lt;Path&gt;" class="shp7" d="M631.63 1200.22L683.94 1200.22L683.94 1157.94L631.63 1157.94L631.63 1200.22Z" />
			<g id="&lt;Group&gt;">
				<path id="&lt;Path&gt;" class="shp7" d="M805.1 1349.37L847.39 1349.37C858.88 1349.37 868.28 1339.96 868.28 1328.47C868.28 1316.98 858.88 1307.58 847.39 1307.58L805.1 1307.58C793.61 1307.58 784.21 1316.98 784.21 1328.47C784.21 1339.96 793.61 1349.37 805.1 1349.37Z" />
				<path id="&lt;Path&gt;" class="shp7" d="M872.1 1321.23L872.1 1333.93L864.47 1328.56L872.1 1321.23Z" />
				<path id="&lt;Path&gt;" class="shp7" d="M779.3 1321.23L779.3 1333.93L786.92 1328.56L779.3 1321.23Z" />
			</g>
			<g id="&lt;Group&gt;">
				<path id="&lt;Path&gt;" class="shp7" d="M693.94 1349.37L736.23 1349.37C747.72 1349.37 757.12 1339.96 757.12 1328.47C757.12 1316.98 747.72 1307.58 736.23 1307.58L693.94 1307.58C682.45 1307.58 673.05 1316.98 673.05 1328.47C673.05 1339.96 682.45 1349.37 693.94 1349.37Z" />
				<path id="&lt;Path&gt;" class="shp7" d="M760.94 1321.23L760.94 1333.93L753.31 1328.56L760.94 1321.23Z" />
				<path id="&lt;Path&gt;" class="shp7" d="M668.14 1321.23L668.14 1333.93L675.76 1328.56L668.14 1321.23Z" />
			</g>
			<g id="&lt;Group&gt;">
				<path id="&lt;Path&gt;" class="shp7" d="M590.44 1349.37L632.73 1349.37C644.22 1349.37 653.63 1339.96 653.63 1328.47C653.63 1316.98 644.22 1307.58 632.73 1307.58L590.44 1307.58C578.95 1307.58 569.55 1316.98 569.55 1328.47C569.55 1339.96 578.95 1349.37 590.44 1349.37Z" />
				<path id="&lt;Path&gt;" class="shp7" d="M657.44 1321.23L657.44 1333.93L649.81 1328.56L657.44 1321.23Z" />
				<path id="&lt;Path&gt;" class="shp7" d="M564.64 1321.23L564.64 1333.93L572.26 1328.56L564.64 1321.23Z" />
			</g>
			<g id="&lt;Group&gt;">
				<path id="&lt;Path&gt;" class="shp9" d="M1320.67 1300.99C1322.08 1285.93 1320.01 1275.27 1314.44 1268.99C1306.08 1259.58 1291.49 1253.19 1283.73 1259.21C1275.97 1265.23 1267.34 1291.34 1267.77 1295.34C1268.06 1298.01 1285.69 1299.89 1320.67 1300.99Z" />
				<path id="&lt;Path&gt;" class="shp10" d="M1327.26 1295.29L1318.93 1400.88L1250.05 1393.74L1260.46 1288.57L1327.26 1295.29Z" />
				<g id="&lt;Group&gt;">
					<path id="&lt;Path&gt;" class="shp11" d="M1367.1 1257.19C1335.98 1178.66 1306.48 1139.87 1278.62 1140.8C1266.49 1144.67 1266.75 1152.7 1279.4 1164.89C1292.06 1177.08 1321.29 1207.84 1367.1 1257.19Z" />
					<path id="&lt;Path&gt;" class="shp11" d="M1364.64 1259.21C1313.79 1218.84 1282.75 1203 1271.53 1211.67C1265.19 1215.9 1265.76 1219.81 1273.24 1223.41C1284.45 1228.8 1328.72 1235.91 1364.64 1259.21Z" />
					<path id="&lt;Path&gt;" class="shp11" d="M1370.66 1251.31C1370.2 1250.63 1341.95 1185.5 1353.07 1185.25C1360.48 1185.08 1366.34 1207.1 1370.66 1251.31Z" />
					<path id="&lt;Path&gt;" class="shp10" d="M1424.85 1296.87C1424.69 1296.19 1408.69 1275.78 1376.85 1235.63C1366.67 1235.72 1360.55 1238.74 1358.48 1244.7C1355.37 1253.64 1346.07 1250.95 1341.65 1255.28L1399.76 1322.95L1424.85 1296.87Z" />
				</g>
				<g id="&lt;Group&gt;">
					<g id="&lt;Group&gt;">
						<path id="&lt;Path&gt;" class="shp12" d="M1226.53 1411.87L1252.59 1408.47C1257.44 1407.83 1260.85 1403.39 1260.22 1398.55L1251.24 1329.79C1250.61 1324.95 1246.16 1321.54 1241.32 1322.17L1215.26 1325.57C1210.42 1326.2 1207 1330.65 1207.63 1335.49L1216.61 1404.24C1217.25 1409.09 1221.69 1412.5 1226.53 1411.87Z" />
						<path id="&lt;Path&gt;" class="shp12" d="M1225.4 1341.4L1235.58 1340.07C1237.48 1339.82 1238.81 1338.09 1238.56 1336.19L1235.06 1309.32C1234.81 1307.43 1233.07 1306.09 1231.18 1306.34L1221 1307.67C1219.1 1307.92 1217.77 1309.65 1218.02 1311.55L1221.52 1338.42C1221.77 1340.31 1223.51 1341.64 1225.4 1341.4Z" />
					</g>
					<path id="&lt;Path&gt;" class="shp3" d="M1221.31 1381.96L1249.62 1378.26L1243.93 1334.66L1215.61 1338.36L1221.31 1381.96Z" />
				</g>
				<g id="&lt;Group&gt;">
					<g id="&lt;Group&gt;">
						<g id="&lt;Group&gt;">
							<path id="&lt;Path&gt;" class="shp12" d="M1267.43 1405.77L1303.91 1403.83C1306.29 1403.71 1308.12 1401.67 1307.99 1399.29L1307.38 1387.75C1307.25 1385.37 1305.22 1383.54 1302.84 1383.67L1266.36 1385.6C1263.98 1385.73 1262.15 1387.76 1262.28 1390.14L1262.89 1401.68C1263.01 1404.06 1265.05 1405.89 1267.43 1405.77Z" />
						</g>
						<path id="&lt;Path&gt;" class="shp12" d="M1277.95 1388.78L1291.65 1388.06C1292.54 1388.01 1293.23 1387.25 1293.18 1386.35L1292.95 1382.02C1292.91 1381.13 1292.14 1380.44 1291.25 1380.49L1277.55 1381.21C1276.65 1381.26 1275.97 1382.02 1276.02 1382.92L1276.24 1387.25C1276.29 1388.14 1277.06 1388.83 1277.95 1388.78Z" />
					</g>
					<path id="&lt;Path&gt;" class="shp3" d="M1262.81 1400.14L1307.91 1397.75L1307.45 1389.16L1262.35 1391.55L1262.81 1400.14Z" />
				</g>
				<path id="&lt;Path&gt;" class="shp12" d="M1381.04 1354.63L1508.43 1390.45L1558.87 1211.09L1431.48 1175.27L1381.04 1354.63Z" />
				<path id="&lt;Path&gt;" class="shp12" d="M1329.89 1400.68L1406.21 1396.99L1401.69 1303.65L1325.38 1307.34L1329.89 1400.68Z" />
				<path id="&lt;Path&gt;" class="shp12" d="M1461.61 1392.41L1410.44 1394.88L1409.57 1376.87L1460.74 1374.39L1461.61 1392.41Z" />
				<path id="&lt;Path&gt;" class="shp13" d="M1160.58 1532.36C1181.83 1532.36 1199.05 1549.58 1199.05 1570.83C1199.05 1592.07 1181.83 1609.29 1160.58 1609.29C1139.34 1609.29 1122.11 1592.07 1122.11 1570.83C1122.11 1549.58 1139.34 1532.36 1160.58 1532.36Z" />
				<path id="&lt;Path&gt;" class="shp14" d="M1160.58 1553.13C1170.36 1553.13 1178.28 1561.05 1178.28 1570.83C1178.28 1580.6 1170.36 1588.52 1160.58 1588.52C1150.81 1588.52 1142.88 1580.6 1142.88 1570.83C1142.88 1561.05 1150.81 1553.13 1160.58 1553.13Z" />
				<path id="&lt;Path&gt;" class="shp13" d="M1467.37 1532.36C1488.61 1532.36 1505.84 1549.58 1505.84 1570.83C1505.84 1592.07 1488.61 1609.29 1467.37 1609.29C1446.12 1609.29 1428.9 1592.07 1428.9 1570.83C1428.9 1549.58 1446.12 1532.36 1467.37 1532.36Z" />
				<path id="&lt;Path&gt;" class="shp14" d="M1467.37 1553.13C1477.14 1553.13 1485.06 1561.05 1485.06 1570.83C1485.06 1580.6 1477.14 1588.52 1467.37 1588.52C1457.59 1588.52 1449.67 1580.6 1449.67 1570.83C1449.67 1561.05 1457.59 1553.13 1467.37 1553.13Z" />
				<path id="&lt;Compound Path&gt;" fill-rule="evenodd" class="shp15" d="M1083.96 1122.88C1086.13 1120.54 1089.78 1120.41 1092.12 1122.58L1141.36 1168.27C1142.09 1168.95 1142.63 1169.8 1142.93 1170.75L1149.19 1190.4L1562.4 1210C1563.93 1210.07 1565.37 1210.75 1566.4 1211.88C1567.43 1213.01 1567.97 1214.51 1567.89 1216.04L1559.43 1389.92C1559.29 1392.83 1556.99 1395.18 1554.08 1395.39L1214.79 1420.01C1214.65 1420.02 1214.51 1420.03 1214.37 1420.03C1211.87 1420.03 1209.64 1418.42 1208.87 1416.01L1139.45 1197.86C1139.42 1197.77 1139.39 1197.68 1139.37 1197.59L1132.4 1175.7L1084.27 1131.04C1081.93 1128.87 1081.8 1125.22 1083.96 1122.88ZM1199.44 1348.29L1237.38 1346.84L1221.51 1282.8L1178.48 1282.43L1199.44 1348.29ZM1247.59 1346.45L1290.3 1344.81L1275.87 1283.26L1231.83 1282.89L1247.59 1346.45ZM1303.71 1401.99L1292.63 1354.73L1250.05 1356.37L1262.11 1405.01L1303.71 1401.99ZM1353.05 1398.41L1344.56 1352.74L1302.81 1354.34L1313.81 1401.26L1353.05 1398.41ZM1407.42 1394.46L1400.78 1350.59L1354.66 1352.36L1363.08 1397.68L1407.42 1394.46ZM1452.78 1391.17L1449.58 1348.72L1410.84 1350.21L1417.42 1393.74L1452.78 1391.17ZM1507.8 1387.18L1505.16 1346.59L1459.58 1348.34L1462.75 1390.45L1507.8 1387.18ZM1552.95 1285.61L1511.21 1285.25L1514.51 1336.22L1550.55 1334.84L1552.95 1285.61ZM1501.18 1285.17L1454.78 1284.77L1458.83 1338.36L1504.52 1336.61L1501.18 1285.17ZM1449.61 1216.2L1454.03 1274.77L1500.53 1275.16L1496.84 1218.44L1449.61 1216.2ZM1390.14 1213.38L1399.36 1274.3L1443.99 1274.68L1439.55 1215.72L1390.14 1213.38ZM1328.29 1210.45L1340.06 1273.8L1389.23 1274.22L1379.96 1212.9L1328.29 1210.45ZM1268.4 1207.61L1283.81 1273.32L1329.87 1273.71L1318.03 1209.96L1268.4 1207.61ZM1390.74 1284.23L1341.93 1283.82L1352.81 1342.42L1399.28 1340.64L1390.74 1284.23ZM1409.33 1340.25L1448.82 1338.74L1444.75 1284.69L1400.87 1284.32L1409.33 1340.25ZM1331.74 1283.73L1286.16 1283.35L1300.48 1344.42L1342.71 1342.81L1331.74 1283.73ZM1273.52 1273.24L1258.01 1207.12L1212.52 1204.96L1229.35 1272.86L1273.52 1273.24ZM1506.9 1218.92L1510.55 1275.24L1553.44 1275.61L1556.08 1221.25L1506.9 1218.92ZM1550.07 1344.87L1515.16 1346.21L1517.78 1386.46L1548.15 1384.25L1550.07 1344.87ZM1218.49 1408.17L1251.98 1405.74L1239.84 1356.76L1202.58 1358.18L1218.49 1408.17ZM1175.28 1272.41L1219.02 1272.78L1202.09 1204.46L1152.92 1202.13L1175.28 1272.41Z" />
				<g id="&lt;Group&gt;">
					<path id="&lt;Path&gt;" class="shp16" d="M1104.91 1149.24C1106.83 1149.24 1108.74 1148.45 1110.11 1146.9C1112.64 1144.03 1112.36 1139.66 1109.49 1137.13L1084.31 1114.91C1081.44 1112.38 1077.07 1112.65 1074.54 1115.52C1072.01 1118.39 1072.28 1122.76 1075.15 1125.29L1100.33 1147.51C1101.65 1148.67 1103.28 1149.24 1104.91 1149.24Z" />
				</g>
				<g id="&lt;Group&gt;">
					<path id="&lt;Path&gt;" class="shp14" d="M1553.67 1396.56C1557.34 1396.56 1560.4 1393.68 1560.58 1389.97L1569.04 1216.1C1569.23 1212.28 1566.29 1209.03 1562.46 1208.84C1558.62 1208.64 1555.4 1211.6 1555.21 1215.42L1546.75 1389.3C1546.56 1393.12 1549.51 1396.37 1553.33 1396.55C1553.44 1396.56 1553.56 1396.56 1553.67 1396.56Z" />
				</g>
				<path id="&lt;Path&gt;" class="shp15" d="M1159.42 1568.16L1167.16 1521.57C1164.1 1521.43 1161.67 1518.9 1161.67 1515.81L1161.67 1452.73C1161.67 1451 1162.44 1449.36 1163.78 1448.26L1210.71 1409.79C1213.18 1407.77 1216.81 1408.14 1218.83 1410.6C1220.86 1413.06 1220.49 1416.7 1218.03 1418.72L1173.21 1455.46L1173.21 1510.15L1503.81 1516.12L1514.49 1486.04C1515.56 1483.04 1518.86 1481.47 1521.86 1482.54C1524.86 1483.6 1526.43 1486.9 1525.37 1489.9L1515.21 1518.49L1559.61 1535.83C1562.58 1536.99 1564.05 1540.34 1562.89 1543.3C1562 1545.58 1559.82 1546.98 1557.51 1546.98C1556.81 1546.98 1556.1 1546.85 1555.41 1546.58L1507.13 1527.72L1500.21 1527.6L1469.15 1572.18C1467.55 1574.48 1464.56 1572.93 1464.69 1569.86L1466.54 1526.99L1202.03 1522.21L1162.89 1570.1C1161.52 1571.78 1159.05 1570.39 1159.42 1568.16Z" />
			</g>
			<g id="&lt;Group&gt;">
				<g id="&lt;Group&gt;">
					<g id="man 1 ">
						<g id="&lt;Group&gt;">
							<path id="&lt;Path&gt;" class="shp17" d="M743.64 1538.35C733.55 1547.7 729.49 1555.7 731.46 1562.35C734.41 1572.31 748.07 1578.96 749.92 1591.14C751.76 1603.33 759.15 1609.97 765.79 1609.97C770.22 1609.97 780.78 1609.97 797.48 1609.97C800.74 1604.26 798.43 1600.54 790.55 1598.82C778.74 1596.23 774.28 1581.91 775.02 1568.62C775.51 1559.76 775.15 1549.42 773.91 1537.61L748.81 1531.7L743.64 1538.35Z" />
							<path id="&lt;Path&gt;" class="shp17" d="M929.35 1576.6C926.89 1596.29 927.88 1607.24 932.31 1609.46C936.74 1611.67 965.41 1612.41 1018.33 1611.67C1018.33 1605.03 1013.78 1600.97 1004.67 1599.49C991.01 1597.28 967.01 1589.15 962.95 1571.06C960.24 1559 949.04 1560.85 929.35 1576.6Z" />
							<path id="&lt;Path&gt;" class="shp13" d="M1001.16 1125.57C998.17 1162.88 994.92 1203.96 991.4 1248.81C984.23 1340.2 975.62 1452.46 974.76 1473.73C973.78 1498.35 971.32 1530.35 967.38 1569.73C958.03 1579.08 944 1581.79 925.29 1577.85C908.61 1521.63 897.89 1463.78 893.13 1404.3C893.02 1402.84 892.91 1401.37 892.8 1399.89C888.37 1339.34 882.71 1245.32 875.82 1117.81L1001.16 1125.57Z" />
							<path id="&lt;Path&gt;" class="shp17" d="M1001.16 1125.57C998.17 1162.88 994.92 1203.96 991.4 1248.81L893.13 1404.3C893.02 1402.84 892.91 1401.37 892.8 1399.89C888.37 1339.34 882.71 1245.32 875.82 1117.81L1001.16 1125.57Z" />
							<path id="&lt;Path&gt;" class="shp13" d="M980.67 1132.21C926.77 1267.34 882.09 1366.66 846.65 1430.17C811.2 1493.67 787.94 1534.29 776.87 1552.01C756.56 1543.88 745.48 1537.05 743.64 1531.52C757.19 1408.92 775.84 1332.68 799.57 1302.79C819.69 1277.46 843.33 1201.44 844.44 1174.86C845.17 1157.13 847.57 1130.74 851.63 1095.66L980.67 1132.21Z" />
						</g>
						<path id="&lt;Path&gt;" class="shp18" d="M1058.9 1077.52L1066.06 1087.77C1083.23 1089.57 1091.53 1099.83 1090.95 1118.55C1090.14 1126.27 1087.17 1129.02 1082.07 1126.8C1074.41 1123.46 1077.86 1123.63 1066.95 1119.16C1056.04 1114.69 1048.31 1105.57 1048.66 1096.9L1045.12 1087.87L1058.9 1077.52Z" />
						<path id="&lt;Path&gt;" class="shp18" d="M874.28 819.78C910.72 837.72 939.48 843.37 960.55 836.73C955.36 830.1 948.24 824.3 939.2 819.33C939.96 814.8 940.58 810.66 941.06 806.96C942.25 797.86 942.87 790.71 942.91 785.52L929.96 775.08L901.89 752.46C902.13 759.85 901.57 766.61 900.45 772.76L900.45 772.77C900.45 772.78 900.45 772.78 900.45 772.79C900.45 772.79 900.45 772.79 900.45 772.8C896.61 793.91 887.89 809.57 874.28 819.78Z" />
						<path id="&lt;Path&gt;" class="shp19" d="M1056.97 1089.06C1061.62 1084.29 1065.67 1078.79 1069.12 1072.58C1029.59 1023.46 1008.22 996.36 1005.01 991.27C1001.79 986.17 988.18 942.78 964.17 861.08L873.1 842.63C923.78 947.19 953.31 1005.84 961.71 1018.58C975.58 1039.64 1003.27 1065.85 1044.78 1097.2C1049.25 1095.52 1053.31 1092.81 1056.97 1089.06Z" />
						<path id="&lt;Path&gt;" class="shp3" d="M1004.65 1130.23C1003.69 1131.02 1002.59 1131.49 1001.32 1131.49C989.46 1131.33 954.86 1137.92 925.58 1134.92C900.9 1132.55 879.06 1125.24 855.6 1114.72C852.48 1113.32 845.31 1109.5 845.47 1106.01C845.58 1102.2 845.96 1096.67 846.43 1089.71C848.09 1065.49 850.99 1023.84 848.16 975.79C847.66 966.85 847.39 957.97 847.36 949.23C847.12 884.11 860.03 826.83 885.98 807.45C888.19 805.86 901.8 812.51 914.3 818.68C925.85 824.38 937.4 825 948.32 822.79L959.23 832.44C972.52 844.78 987.08 861.56 993.41 887.03C998.79 908.71 1001.95 947.79 1003.69 988.3C1004.48 1006.65 1005.12 1025.17 1005.28 1042.73L1005.28 1043.36C1005.44 1045.1 1005.44 1047 1005.44 1048.74C1006.07 1093.83 1005.44 1129.59 1004.65 1130.23Z" />
						<path id="&lt;Path&gt;" class="shp19" d="M846.43 1089.71C848.09 1065.49 850.99 1023.84 848.16 975.79C847.66 966.85 847.39 957.97 847.36 949.23C854.56 931.75 861.11 916.67 867 904L894.25 904C907.56 994.95 891.62 1056.86 846.43 1089.71Z" />
						<path id="&lt;Path&gt;" class="shp18" d="M793.43 1098.19L788.25 1107.1C795.01 1121.41 790.37 1131.23 774.35 1136.58C767.45 1138.32 763.71 1136.8 763.12 1132.02C762.24 1124.85 763.76 1127.67 762.26 1117.54C760.76 1107.42 764.71 1098.41 772.18 1096L778.07 1090.36L793.43 1098.19Z" />
						<path id="&lt;Path&gt;" class="shp3" d="M779.71 1100.63C786.25 1101.9 793.07 1102.28 800.16 1101.76C819.58 1041.78 830.54 1009.05 833.04 1003.57C835.53 998.09 864.37 962.92 919.55 898.07L885.07 811.78C825.39 911.47 792.52 968.32 786.46 982.32C776.45 1005.47 769.7 1042.99 766.23 1094.89C770.08 1097.71 774.58 1099.62 779.71 1100.63Z" />
						<path id="&lt;Path&gt;" class="shp20" d="M900.45 772.77C900.45 772.77 900.45 772.78 900.45 772.79C900.45 772.79 900.45 772.79 900.45 772.8C901 773.77 917.26 802.89 941.06 806.96C942.25 797.86 942.87 790.71 942.91 785.52L929.96 775.08C922.23 770.64 915.29 767.74 912.68 768.3C904.17 770.12 900.66 772.61 900.45 772.76L900.45 772.77C900.45 772.77 900.45 772.77 900.45 772.77Z" />
						<path id="&lt;Path&gt;" class="shp18" d="M952.57 784.77C917.78 790.55 898.75 782.58 895.48 760.86C890.58 728.27 880.55 707.45 913.66 700.53C946.78 693.62 955.14 705.08 959.42 715.56C963.7 726.03 966.02 781.68 952.57 784.77Z" />
						<path id="&lt;Path&gt;" class="shp13" d="M895.44 757.72C899.01 757.12 900.51 754.37 899.93 749.45C899.07 742.07 899.08 732.43 905.08 734.23C911.07 736.02 911.37 740.83 913.84 738.02C916.3 735.22 916.35 723.4 934.19 722.58C952.04 721.76 959.29 727.97 967.59 724.32C973.12 721.89 976.04 716.49 976.33 708.11C974.75 711.1 972.78 713.07 970.4 714.02C979.63 701.4 978.9 690.76 968.22 682.1C952.19 669.11 935.84 677.61 926.56 678.18C906.13 679.41 892.92 680.64 886.25 694.07C879.57 707.5 882.32 744.79 895.44 757.72Z" />
					</g>
				</g>
			</g>
			<g id="&lt;Group&gt;">
				<path id="&lt;Path&gt;" class="shp21" d="M545.2 1185.93C521.4 1175.1 500.49 1174.42 482.49 1183.89C455.48 1198.11 471.99 1315.45 510.61 1326.82C558.85 1342.24 570.38 1295.28 545.2 1185.93Z" />
				<path id="&lt;Path&gt;" class="shp18" d="M651.47 1192.14C642.41 1193.87 623.72 1195.03 595.42 1195.63C593.07 1188.42 596.26 1181 604.98 1173.38C632.08 1149.7 701.93 1133.25 711.92 1130.87C723.15 1124 739.98 1119.1 762.43 1116.2C763.41 1115.25 768.74 1110.05 770.26 1108.14C770.36 1107.97 770.47 1107.82 770.59 1107.67C771.57 1106.43 773.22 1105.8 774.85 1106.21L783.3 1108.33C784.1 1108.53 784.78 1108.96 785.3 1109.52C785.48 1109.71 785.63 1109.91 785.77 1110.13L788.86 1115.18L772.09 1123.96C772.08 1123.96 772.06 1123.95 772.04 1123.94C758.9 1131.97 664.11 1189.72 651.47 1192.14Z" />
				<path id="&lt;Path&gt;" class="shp22" d="M666.62 1574.45C670.36 1578.91 675.24 1581.1 681.26 1581.04C686.84 1580.98 692.02 1582.66 695.8 1585.83C699.14 1588.64 697.77 1594.08 693.52 1595.06L650.9 1604.82C646.8 1605.76 642.78 1602.96 642.25 1598.79C641.85 1595.66 641.37 1592.15 640.89 1589.45C640.14 1585.19 641.49 1580.9 644.92 1576.55L666.62 1574.45Z" />
				<path id="&lt;Path&gt;" class="shp5" d="M674.12 1575.11C665.95 1581.52 653.8 1584.52 637.66 1584.11C620.72 1511.64 610.66 1473.21 607.46 1468.8C606.31 1467.24 603.93 1463.19 600.95 1457.84C600.7 1457.38 600.43 1456.9 600.16 1456.43C590.43 1438.94 575.2 1409.6 574.1 1405.14C572.61 1399.14 590.13 1322.08 604.49 1324.56C615.23 1326.43 624.5 1331.27 628.5 1333.59C629.4 1334.12 630.1 1334.55 630.6 1334.88C630.96 1336.34 631.45 1338.34 632.07 1340.88C632.93 1344.33 634.11 1349.1 635.51 1354.77C635.69 1355.47 635.86 1356.19 636.04 1356.93C644 1389.31 658.16 1446.99 660.31 1456.81C662.31 1466.01 666.91 1505.44 674.12 1575.11Z" />
				<path id="&lt;Path&gt;" class="shp23" d="M635.51 1354.77L600.16 1456.43C590.43 1438.94 575.2 1409.6 574.1 1405.14C572.61 1399.14 590.13 1322.08 604.49 1324.56C615.23 1326.43 624.5 1331.27 628.5 1333.59C629.4 1334.12 630.1 1334.55 630.6 1334.88C630.96 1336.34 631.45 1338.34 632.07 1340.88C632.93 1344.33 634.11 1349.1 635.51 1354.77Z" />
				<path id="&lt;Path&gt;" class="shp22" d="M548.06 1584.24C550.61 1589.21 554.71 1592.31 560.35 1593.54C565.69 1594.71 570.26 1597.48 573.1 1601.38C575.51 1604.67 573.18 1609.3 569.11 1609.3L526.11 1609.3C522.45 1609.3 519.59 1606.14 519.96 1602.49C520.27 1599.31 520.61 1595.6 520.76 1592.75C520.97 1588.61 523.15 1584.88 527.29 1581.54L548.06 1584.24Z" />
				<path id="&lt;Path&gt;" class="shp13" d="M527.03 1088.04C524.48 1076.96 527.63 1068.78 532.71 1060.9C537.59 1053.35 544.44 1053.02 551.03 1046.63C557.23 1040.6 568.78 1036.64 577.97 1036.64C607.4 1036.64 632.88 1054.66 627.07 1085.21C625.23 1094.91 626.79 1102.56 618.92 1113.91C609.1 1128.07 597.16 1139.44 577.97 1139.44C567.8 1139.44 558.87 1137.09 551.03 1129.67C546.75 1125.63 540.62 1125.13 536.86 1120.73C529.26 1111.85 529.82 1100.14 527.03 1088.04Z" />
				<path id="&lt;Path&gt;" class="shp18" d="M604.98 1159.79L568.31 1178.53L560.96 1153.09C564.08 1147.22 566.34 1139.48 567.75 1129.86C568.63 1123.8 569.07 1116.74 568.51 1108.92L598.39 1124.22C597.91 1126.06 597.51 1128.34 597.2 1131.06C596.69 1135.46 596.46 1141.4 597.71 1147.05C598.79 1151.89 600.96 1156.52 604.98 1159.79Z" />
				<path id="&lt;Path&gt;" class="shp5" d="M520.02 1344.15C515.37 1405.76 513.57 1485.66 514.6 1583.85C520.21 1586.8 526.4 1588.61 533.16 1589.28C545.79 1590.54 553.64 1588.67 556.71 1583.66C569.63 1535.74 577.7 1500.98 580.93 1479.39C583.9 1459.48 595.16 1413.61 614.71 1341.77L520.02 1344.15Z" />
				<path id="&lt;Path&gt;" class="shp3" d="M628.61 1341.51C587.82 1352.59 535.79 1346.38 522.97 1344.58C521.69 1344.4 520.71 1344.26 520.02 1344.14C515.51 1343.06 512.44 1339.02 512.44 1334.53C512.44 1333.96 512.5 1333.37 512.6 1332.78L524.69 1265.63L520.63 1231.92L518.32 1212.7L513.05 1168.82C530.52 1159.93 546.4 1155.18 560.96 1153.09C566.53 1158.8 577.54 1167.2 589.85 1165.6C599.1 1164.39 600.58 1159.6 600.42 1154.33C613.32 1156.45 623.35 1159.34 630.49 1162.98L643.07 1320.78C643.83 1330.26 637.79 1339.02 628.61 1341.51Z" />
				<path id="&lt;Path&gt;" class="shp3" d="M560.96 1153.09L555.45 1164.05L550.1 1174.71L521.48 1231.69C518.71 1228.11 507.55 1222.69 488 1215.45C498.39 1192.11 506.74 1176.57 513.05 1168.82C515.77 1165.48 520.88 1162.76 526.8 1160.59C531.68 1158.78 537.1 1157.35 542.16 1156.24C548.91 1154.76 555.18 1153.71 560.96 1153.09Z" />
				<path id="&lt;Path&gt;" class="shp3" d="M650.13 1144.6C650.15 1145.56 650.94 1147.65 652.09 1150.19C653.51 1153.31 655.46 1157.12 657.18 1160.35C657.18 1160.35 657.18 1160.36 657.18 1160.37C658.56 1162.96 663.8 1171.46 672.88 1185.88L625.03 1209.88L588.01 1190.66C588.38 1181.83 604.98 1169.25 606.8 1155.52C622.56 1155.42 637 1151.78 650.13 1144.6Z" />
				<path id="&lt;Path&gt;" class="shp19" d="M539.48 1293.89C538.67 1317.31 536.38 1337.16 522.97 1344.58C521.69 1344.4 520.71 1344.26 520.02 1344.14C515.51 1343.06 512.44 1339.02 512.44 1334.53C512.44 1333.96 512.5 1333.37 512.6 1332.78L524.69 1265.63L520.63 1231.92C520.76 1231.53 520.86 1231.23 520.93 1231.02C533.98 1252.94 540.16 1273.89 539.48 1293.89Z" />
				<path id="&lt;Path&gt;" class="shp21" d="M514.03 1321.19L517.17 1303.75C570.35 1226.81 575.1 1212.61 551.19 1178.06C544.34 1168.17 531.88 1161.99 526.8 1160.59C531.68 1158.78 537.1 1157.35 542.16 1156.24C547.21 1158.61 551.85 1160.94 555.45 1164.05C604.11 1206.18 590.3 1258.56 514.03 1321.19Z" />
				<path id="&lt;Path&gt;" class="shp18" d="M491.48 1216.82C501.4 1219.88 516.37 1226.54 520.93 1231.02C517.57 1238.75 514.94 1245.17 513.05 1250.29C516.49 1248.76 529.86 1246.93 553.16 1244.82C555.08 1230.6 562.98 1223.01 576.86 1222.05C582.64 1222.08 584.94 1224.07 583.75 1228.02C581.97 1233.94 581.79 1231.37 579.46 1239.78C577.14 1248.19 571.09 1254.59 564.65 1254.97L564.17 1255.1C537.26 1277.37 500.53 1277.56 489.41 1277.04C487.41 1276.95 485.71 1275.56 485.26 1273.61C481.01 1255.21 483.92 1236.11 491.48 1216.82Z" />
				<path id="&lt;Path&gt;" class="shp20" d="M597.71 1147.05C586.39 1146.75 576.4 1141.02 567.75 1129.86L597.2 1131.06C596.69 1135.46 596.46 1141.4 597.71 1147.05Z" />
				<path id="&lt;Path&gt;" class="shp18" d="M599.33 1136.79C574.3 1139.83 561.52 1132.54 560.99 1114.91C560.19 1088.46 575.83 1071.33 586.28 1071.53C607.11 1071.92 610.54 1080.33 612.96 1089.1C615.37 1097.86 616.61 1134.92 599.33 1136.79Z" />
				<path id="&lt;Path&gt;" class="shp24" d="M589.29 1121.54C589.84 1123.74 592.85 1124.64 598.33 1124.23C602.93 1123.89 605.15 1122.51 604.98 1120.09C600.49 1118.42 595.26 1118.9 589.29 1121.54Z" />
				<path id="&lt;Path&gt;" class="shp21" d="M595.57 1071.77C574.18 1071.76 565.95 1079.1 570.86 1093.78C573.96 1103.03 570.36 1108.38 560.06 1109.82L552.62 1087.57L557.28 1070.23L595.57 1071.77Z" />
			</g>
			<g id="&lt;Group&gt;">
				<path id="&lt;Path&gt;" class="shp25" d="M2302.58 1246.8L2107.61 1246.8C2099.17 1246.8 2092.33 1253.64 2092.33 1262.08C2092.33 1270.52 2099.17 1277.37 2107.61 1277.37L2195.13 1277.37L2195.13 1374.41L2215.06 1374.41L2215.06 1277.37L2302.58 1277.37C2311.02 1277.37 2317.87 1270.52 2317.87 1262.08C2317.87 1253.64 2311.02 1246.8 2302.58 1246.8Z" />
				<g id="&lt;Group&gt;">
					<path id="&lt;Path&gt;" class="shp18" d="M1962.37 1010.37C1958.09 999.88 1953.59 994.42 1948.88 993.99C1941.81 993.35 1919.32 989.81 1917.72 993.03C1916.11 996.24 1917.72 1007.8 1922.54 1011.98C1925.75 1014.76 1937.31 1018.4 1957.23 1022.9L1962.37 1010.37Z" />
					<path id="&lt;Path&gt;" class="shp23" d="M2100.32 810.01C2101.68 813.16 2107.5 814.66 2117.79 814.48C2128.07 814.31 2128.96 809.39 2120.45 799.74L2104.42 806.39L2100.32 810.01Z" />
					<path id="&lt;Compound Path&gt;" class="shp25" d="M2133.53 908.05C2130.87 902.54 2127.88 892.76 2126.42 875.33C2126.65 877.06 2129.65 899.05 2138.11 911.5C2172.84 934.3 2239.41 1010.44 2238.09 1024.86C2253.72 998.35 2261.67 985.01 2261.94 984.86C2281.62 951.66 2274.36 924.56 2240.19 903.56C2214.13 887.55 2214.2 859.67 2214.14 841.78C2213.94 790.07 2186.5 758.1 2169.8 769.34C2164.22 766.86 2160.18 765.81 2157.67 766.18C2159.72 766.57 2161.26 767.3 2162.3 768.37C2156.25 768.01 2147.59 768.46 2140.38 772.56C2121.24 783.44 2104.12 880.98 2133.53 908.05Z" />
					<path id="&lt;Path&gt;" class="shp18" d="M2140.16 912.63C2139.99 912.71 2156.93 921.51 2169.68 918.02C2181.66 914.75 2189.5 899.21 2189.33 899.17C2184.26 898.16 2182.79 891.19 2182.9 861.21L2180.6 861.66L2142.02 869.3C2142.6 877.4 2142.9 885.26 2142.92 892.89C2142.95 902.49 2142.36 911.6 2140.16 912.63Z" />
					<path id="&lt;Path&gt;" class="shp20" d="M2142.02 869.3C2142.6 877.4 2142.9 885.26 2142.92 892.89C2164.51 892.28 2175.93 872.58 2180.6 861.66L2142.02 869.3Z" />
					<path id="&lt;Path&gt;" class="shp25" d="M2184.59 857.46C2192.13 845.54 2196.81 834.48 2198.62 824.29C2200.56 813.38 2195 772.91 2154.34 778.74C2146.47 779.52 2138.83 782.41 2131.43 787.4C2122.61 793.37 2109.87 806.24 2124.11 841.54L2127.81 853.47L2184.59 857.46Z" />
					<path id="&lt;Path&gt;" class="shp18" d="M2134.8 880.14C2168.86 880.7 2185.91 870.37 2185.93 849.15C2185.96 817.33 2192.58 796 2159.96 794.12C2127.35 792.24 2120.99 804.37 2118.4 814.99C2115.8 825.61 2121.51 879.1 2134.8 880.14Z" />
					<path id="&lt;Path&gt;" class="shp25" d="M2183.05 800.05C2159.78 784.15 2144.47 781.69 2137.11 792.69C2133.76 789.82 2127.8 787.74 2119.92 797.3C2112.02 806.87 2111.59 820.11 2118.61 837.03C2123.48 837.6 2124.62 820.92 2127.17 812.81C2129.09 806.7 2135.5 800.46 2138.54 797.76C2143 807.81 2155.26 831.85 2172.15 836.2C2186.46 839.88 2196.72 839.8 2202.93 835.97C2191.95 827.25 2185.33 815.27 2183.05 800.05Z" />
					<path id="&lt;Path&gt;" class="shp3" d="M2253.93 1050.08C2258.97 1028.95 2241.83 987.95 2223.94 954C2207.7 923.23 2190.85 898.28 2189.33 899.17C2160.78 916.12 2145.22 917.54 2142.64 903.46C2116.71 906.9 2100.07 914.94 2092.73 927.58C2077.5 953.8 2060.91 1032.47 2044.61 1031.31C2039.62 1030.96 2012.03 1021.34 1961.83 1002.48C1953.47 1010.31 1950.09 1019.03 1951.69 1028.65C1976.48 1045.24 1999.35 1058.83 2020.31 1069.42C2036.93 1077.83 2051.96 1083.71 2059.03 1082.04C2073.35 1078.67 2095.72 1045.47 2107.81 1025.92C2107.83 1025.88 2107.86 1025.84 2107.89 1025.79C2123.32 1113.12 2102.34 1133.01 2112.96 1142.22C2124.17 1151.94 2140.19 1137.59 2175.43 1152.86C2198.55 1162.89 2230.63 1177.39 2252.23 1179.91C2263.55 1181.24 2272 1179.27 2274.76 1171.62C2282.77 1149.4 2244.32 1090.36 2253.93 1050.08Z" />
					<path id="&lt;Path&gt;" class="shp24" d="M2146.16 860.84C2145.53 863.54 2141.86 864.68 2135.15 864.26C2129.52 863.92 2126.79 862.26 2126.97 859.3C2132.42 857.19 2138.82 857.71 2146.16 860.84Z" />
					<path id="&lt;Path&gt;" class="shp26" d="M2274.76 1171.62C2272 1179.27 2263.55 1181.24 2252.23 1179.91C2237.28 1173.4 2172.71 1148.39 2173.43 1131.44C2174.51 1106.34 2185.85 1105.54 2177.84 1074.57C2171.41 1049.7 2215.13 998.56 2224.65 988.51C2242.54 1022.45 2258.97 1028.95 2253.93 1050.08C2244.32 1090.36 2282.77 1149.4 2274.76 1171.62Z" />
					<path id="&lt;Path&gt;" class="shp26" d="M2107.81 1025.92C2095.72 1045.47 2073.35 1078.67 2059.03 1082.04C2051.96 1083.71 2036.93 1077.83 2020.31 1069.42C2032.44 1072.56 2044.23 1072.47 2055.69 1071.36C2068.1 1070.16 2071.71 1054.94 2091.33 1032.11C2104.06 1017.31 2107.18 1021.04 2107.81 1025.92Z" />
					<path id="&lt;Path&gt;" class="shp5" d="M2126.11 796.98C2160.85 800.8 2187.23 800.14 2205.25 795.01C2204.92 768.43 2191.73 755.14 2165.68 755.14C2139.62 755.14 2126.44 769.09 2126.11 796.98Z" />
					<path id="&lt;Path&gt;" class="shp5" d="M2126.96 790.92C2109.81 793.91 2100.93 800.27 2100.32 810.01C2118.79 797.55 2135.67 798.12 2150.98 811.72C2159.93 819.83 2173.61 815.12 2192.03 797.58L2126.96 790.92Z" />
					<path id="&lt;Path&gt;" class="shp23" d="M2126.96 790.92C2139.49 787.54 2161.18 789.76 2192.03 797.58C2192.02 797.52 2186.19 758.59 2161.73 757.31C2140.84 756.21 2129.45 778.13 2126.74 791.2L2126.96 790.92Z" />
					<path id="&lt;Path&gt;" class="shp23" d="M2169.33 755.32C2169.33 756.39 2166.64 757.27 2163.31 757.27C2159.99 757.27 2157.29 756.39 2157.29 755.32C2157.29 754.24 2159.99 753.36 2163.31 753.36C2166.64 753.36 2169.33 754.24 2169.33 755.32Z" />
					<g id="&lt;Group&gt;">
						<path id="&lt;Path&gt;" class="shp5" d="M2207.54 1008.87C2193.72 982.65 2192.96 946.84 2205.25 901.43L2196.38 899.93C2187.7 906.63 2181.42 928.55 2177.56 965.66L2126.74 965.66C2124.62 947.95 2128.53 927.44 2138.47 904.16L2125.41 907.29C2108.19 956.1 2103.82 1017.74 2112.29 1092.22L2180.66 1092.22C2180.54 1087.55 2179.74 1081.91 2177.84 1074.57C2173.49 1057.74 2192.1 1028.89 2207.54 1008.87Z" />
						<path id="&lt;Path&gt;" class="shp23" d="M2256.26 1092.22L2180.66 1092.22C2181.04 1107.27 2174.25 1112.29 2173.43 1131.44C2172.71 1148.39 2237.28 1173.4 2252.23 1179.91C2263.55 1181.24 2272 1179.27 2274.76 1171.62C2280.23 1156.43 2264.01 1124.06 2256.26 1092.22Z" />
						<path id="&lt;Path&gt;" class="shp23" d="M2253.93 1050.08C2253.94 1050.05 2253.94 1050.02 2253.95 1049.99L2234.93 1032.86C2221.99 1028.43 2213.27 1019.75 2207.54 1008.87C2192.1 1028.89 2173.49 1057.74 2177.84 1074.57C2179.74 1081.91 2180.54 1087.55 2180.66 1092.22L2256.26 1092.22C2252.67 1077.47 2250.89 1062.84 2253.93 1050.08Z" />
					</g>
					<path id="&lt;Path&gt;" class="shp18" d="M2168.53 1076.75C2162.52 1069.87 2156.04 1066.44 2149.11 1066.46C2138.7 1066.48 2132.45 1072.41 2132.23 1075.63C2132.02 1078.85 2135.61 1088.72 2143.13 1091C2148.13 1092.51 2158.27 1092.84 2173.53 1091.99L2168.53 1076.75Z" />
					<path id="&lt;Path&gt;" class="shp3" d="M2189.33 899.17C2217.09 900.88 2235.78 908.44 2245.39 921.84C2265.68 950.15 2300.92 1065.69 2291.31 1092.12L2164.74 1092.22C2162.62 1082.23 2162.97 1074.92 2165.82 1070.29C2170.09 1063.35 2239.51 1052.14 2242.72 1048.93C2245.92 1045.73 2202.67 986.46 2202.67 976.85C2202.67 970.44 2198.22 944.55 2189.33 899.17Z" />
					<path id="&lt;Path&gt;" class="shp5" d="M2177.56 965.66C2180.2 930.48 2186.47 908.56 2196.38 899.93L2207.68 901.95C2200.1 930.03 2196.87 952.67 2197.99 969.87C2199.1 987.06 2194.58 994 2184.41 990.66L2177.56 965.66Z" />
					<path id="&lt;Path&gt;" class="shp27" d="M2105.07 1446.33C2105.06 1449.43 2103.53 1451.57 2100.93 1453.01C2100.92 1453.01 2100.91 1453.02 2100.89 1453.02C2096.08 1455.67 2087.63 1455.94 2078.43 1455.54C2077.25 1455.49 2076.2 1455.46 2075.25 1455.46C2075 1455.46 2074.75 1455.46 2074.51 1455.46C2074.32 1455.46 2074.13 1455.47 2073.95 1455.47C2064.85 1455.7 2065.81 1458.42 2048.51 1459.9C2028.8 1461.59 2021.54 1455.55 2020.38 1452.8C2019.4 1450.47 2027.86 1447.83 2037.31 1444.81C2037.76 1444.67 2038.22 1444.52 2038.69 1444.37C2039.94 1443.97 2041.21 1443.55 2042.47 1443.15C2053.72 1439.41 2064.8 1434.97 2067.56 1423.58C2069.52 1415.52 2067.56 1400.26 2061.68 1377.78L2092.92 1374.41C2094.93 1397.91 2096.59 1413.32 2097.9 1420.64C2098.95 1426.5 2101.61 1431.16 2103.17 1436.18C2103.28 1436.54 2103.38 1436.89 2103.48 1437.24C2104.28 1440.19 2105.08 1443.21 2105.07 1446.33Z" />
					<path id="&lt;Path&gt;" class="shp16" d="M2105.07 1446.33C2105.06 1449.43 2103.53 1451.57 2100.93 1453.01C2100.92 1453.01 2100.91 1453.02 2100.89 1453.02C2095.76 1455.39 2087.45 1455.74 2078.45 1455.48C2077.27 1455.45 2076.21 1455.44 2075.25 1455.46C2075 1455.46 2074.75 1455.46 2074.51 1455.46C2074.32 1455.46 2074.13 1455.47 2073.95 1455.47C2064.85 1455.7 2065.81 1458.42 2048.51 1459.9C2028.8 1461.59 2021.54 1455.55 2020.38 1452.8C2019.4 1450.47 2027.86 1447.83 2037.31 1444.81C2039.96 1445.84 2052.6 1450.23 2067.55 1447.39C2080.71 1444.92 2093.77 1438.37 2103.17 1436.18C2103.28 1436.54 2103.38 1436.89 2103.48 1437.24C2104.28 1440.19 2105.08 1443.21 2105.07 1446.33Z" />
					<path id="&lt;Path&gt;" class="shp27" d="M1902.37 1406.45C1900.63 1415.13 1888.26 1413.68 1874.45 1410.3C1860.63 1406.93 1863.92 1410.94 1844.25 1408.76C1824.59 1406.59 1818.63 1399.25 1818.03 1396.33C1817.5 1393.74 1827.21 1392.82 1837.63 1391.62C1838.94 1391.48 1840.26 1391.31 1841.58 1391.15C1853.34 1389.67 1861.96 1382.08 1872.65 1375.85C1879.4 1371.91 1887.81 1361.92 1897.88 1345.88L1924.85 1348.01C1915.41 1362.34 1908.87 1372.62 1905.22 1378.85C1902 1384.35 1902.17 1391.61 1902.57 1397.23C1902.78 1400.28 1902.98 1403.4 1902.37 1406.45Z" />
					<path id="&lt;Path&gt;" class="shp16" d="M1874.45 1410.3C1860.63 1406.93 1863.92 1410.94 1844.25 1408.76C1824.59 1406.59 1818.63 1399.25 1818.03 1396.33C1817.5 1393.74 1827.21 1392.82 1837.63 1391.62L1837.73 1391.82C1845.59 1397.4 1854.98 1400.31 1865.89 1400.58C1879.23 1400.9 1893.36 1397.08 1902.57 1397.23C1902.78 1400.28 1902.98 1403.4 1902.37 1406.45C1900.63 1415.13 1888.26 1413.68 1874.45 1410.3Z" />
					<path id="&lt;Path&gt;" class="shp28" d="M2005.71 1234.02L2063.83 1390.43C2069.78 1391 2075.61 1390.47 2081.32 1388.82C2086.57 1387.31 2092.2 1384.57 2098.22 1380.59C2088.61 1280.47 2074.99 1220 2057.37 1199.18C2039.75 1178.35 2022.53 1189.97 2005.71 1234.02Z" />
					<path id="&lt;Path&gt;" class="shp29" d="M2235.58 1170.74C2124.25 1133.1 2056.17 1118.28 2031.34 1126.29C2006.51 1134.3 1956.82 1212.47 1882.27 1360.79C1883.95 1363.03 1887.09 1365.01 1891.68 1366.73C1895.95 1368.33 1903.26 1369.08 1913.6 1368.98C1980.88 1311.31 2018.53 1274.07 2026.54 1257.25C2038.55 1232.02 2043.36 1207.99 2055.37 1210.39C2067.38 1212.79 2210.35 1269.26 2242.79 1235.62C2264.42 1213.19 2272.4 1187.41 2266.75 1158.27L2235.58 1170.74Z" />
					<g id="&lt;Group&gt;">
						<path id="&lt;Path&gt;" class="shp30" d="M2204.86 991.05L2179.8 990.21C2178.12 990.16 2176.79 988.74 2176.85 987.06L2177.23 975.85C2177.28 974.16 2178.7 972.84 2180.38 972.9L2205.44 973.74C2207.12 973.79 2208.45 975.21 2208.39 976.89L2208.01 988.1C2207.96 989.79 2206.54 991.11 2204.86 991.05Z" />
						<path id="&lt;Path&gt;" class="shp31" d="M2188.86 987.18L2180.7 986.91L2181.06 975.96L2189.22 976.24L2188.86 987.18Z" />
						<path id="&lt;Path&gt;" class="shp31" d="M2203.53 979.46L2193.37 979.12C2192.62 979.09 2192.02 978.45 2192.04 977.7C2192.07 976.95 2192.71 976.35 2193.46 976.38L2203.62 976.72C2204.37 976.75 2204.97 977.38 2204.94 978.13C2204.92 978.89 2204.28 979.48 2203.53 979.46Z" />
						<path id="&lt;Path&gt;" class="shp31" d="M2204.25 983.26L2192.39 982.86C2192.11 982.86 2191.88 982.61 2191.89 982.33C2191.9 982.04 2192.14 981.81 2192.43 981.82L2204.28 982.22C2204.57 982.23 2204.79 982.47 2204.79 982.76C2204.78 983.04 2204.53 983.27 2204.25 983.26Z" />
						<path id="&lt;Path&gt;" class="shp31" d="M2204.19 984.95L2192.34 984.56C2192.05 984.55 2191.82 984.31 2191.83 984.02C2191.84 983.73 2192.09 983.51 2192.37 983.52L2204.23 983.91C2204.51 983.92 2204.74 984.16 2204.73 984.45C2204.72 984.74 2204.48 984.96 2204.19 984.95Z" />
					</g>
				</g>
				<g id="&lt;Group&gt;">
					<path id="&lt;Path&gt;" class="shp5" d="M1619.64 1612.19L2656.72 1612.19L2656.72 1351.98L1619.64 1349.38L1619.64 1612.19Z" />
					<path id="&lt;Path&gt;" class="shp5" d="M1619.64 1141.27L1619.64 1209.32L2656.72 1209.32L2656.72 1141.27L1619.64 1141.27Z" />
				</g>
				<path id="&lt;Path&gt;" class="shp29" d="M2706.43 1141.27L1539.85 1141.27C1527.75 1141.27 1517.94 1131.46 1517.94 1119.36L1517.94 1114.13C1517.94 1102.03 1527.75 1092.22 1539.85 1092.22L2706.43 1092.22C2718.53 1092.22 2728.34 1102.03 2728.34 1114.13L2728.34 1119.36C2728.34 1131.46 2718.53 1141.27 2706.43 1141.27Z" />
				<path id="&lt;Path&gt;" class="shp32" d="M1628.58 1349.38L2656.72 1351.98L2656.72 1209.32L1628.58 1209.32L1628.58 1349.38Z" />
				<g id="&lt;Group&gt;">
					<path id="&lt;Path&gt;" class="shp28" d="M1892.99 917.54L1840.26 917.54C1837.52 917.54 1835.31 915.32 1835.31 912.59L1835.31 900.58C1835.31 897.84 1837.52 895.63 1840.26 895.63L1892.99 895.63C1895.73 895.63 1897.94 897.84 1897.94 900.58L1897.94 912.59C1897.94 915.32 1895.73 917.54 1892.99 917.54Z" />
					<path id="&lt;Path&gt;" class="shp12" d="M1923.47 971.47L1825.57 971.47L1825.57 935.37L1901.68 935.37C1913.71 935.37 1923.47 945.12 1923.47 957.15L1923.47 971.47Z" />
					<path id="&lt;Path&gt;" class="shp28" d="M2039.07 1092.22L1830.63 1092.22L1830.63 971.47L1956.04 971.47C1967.78 971.47 1978.55 977.96 1984.05 988.33L2039.07 1092.22Z" />
					<path id="&lt;Path&gt;" class="shp12" d="M1985.79 1092.22L1777.34 1092.22L1777.34 979.19C1777.34 974.92 1780.8 971.47 1785.06 971.47L1902.75 971.47C1914.49 971.47 1925.27 977.96 1930.76 988.33L1985.79 1092.22Z" />
					<path id="&lt;Path&gt;" class="shp28" d="M1907.15 971.47L1809.26 971.47L1809.26 943.09C1809.26 938.82 1812.71 935.37 1816.98 935.37L1885.36 935.37C1897.4 935.37 1907.15 945.12 1907.15 957.15L1907.15 971.47Z" />
					<path id="&lt;Path&gt;" class="shp12" d="M1864.45 935.37L1854.39 935.37L1854.39 917.54L1864.45 917.54L1864.45 935.37Z" />
					<path id="&lt;Path&gt;" class="shp12" d="M1885.89 917.54L1833.15 917.54C1830.42 917.54 1828.2 915.32 1828.2 912.59L1828.2 900.58C1828.2 897.84 1830.42 895.63 1833.15 895.63L1885.89 895.63C1888.62 895.63 1890.84 897.84 1890.84 900.58L1890.84 912.59C1890.84 915.32 1888.62 917.54 1885.89 917.54Z" />
					<path id="&lt;Path&gt;" class="shp28" d="M1878.47 910.63L1837.28 910.63L1837.28 900.63L1878.47 900.63L1878.47 910.63Z" />
				</g>
			</g>
			<path id="&lt;Path&gt;" class="shp33" d="M134.96 1616.55L2865.04 1616.55C2866.75 1616.55 2868.14 1615.16 2868.14 1613.45L2868.14 1612.4C2868.14 1610.69 2866.75 1609.3 2865.04 1609.3L134.96 1609.3C133.25 1609.3 131.86 1610.69 131.86 1612.4L131.86 1613.45C131.86 1615.16 133.25 1616.55 134.96 1616.55Z" />
			<path id="&lt;Path&gt;" class="shp19" d="M672.88 1185.88L633.88 1205.44C632.83 1194.26 630.84 1184.56 627.9 1176.33C624.97 1168.11 639.96 1171.29 672.88 1185.88Z" />
		</g>
	</g>
</svg>